<svg id="visual" viewBox="0 0 960 540" width="960" height="540" xmlns="http://www.w3.org/2000/svg" xmlns:xlink="http://www.w3.org/1999/xlink" version="1.1"><rect x="0" y="0" width="960" height="540" fill="#FFFFFF"></rect><defs><linearGradient id="grad1_0" x1="43.8%" y1="100%" x2="100%" y2="0%"><stop offset="14.444444444444446%" stop-color="#ffffff" stop-opacity="1"></stop><stop offset="85.55555555555554%" stop-color="#ffffff" stop-opacity="1"></stop></linearGradient></defs><defs><linearGradient id="grad2_0" x1="0%" y1="100%" x2="56.3%" y2="0%"><stop offset="14.444444444444446%" stop-color="#ffffff" stop-opacity="1"></stop><stop offset="85.55555555555554%" stop-color="#ffffff" stop-opacity="1"></stop></linearGradient></defs><g transform="translate(960, 540)"><path d="M-324 0C-323.3 -46.4 -322.6 -92.9 -299.3 -124C-276 -155.1 -230.1 -170.9 -198.7 -198.7C-167.3 -226.5 -150.5 -266.3 -119.8 -289.2C-89.1 -312.1 -44.5 -318 0 -324L0 0Z" fill="#605bff"></path></g><g transform="translate(0, 0)"><path d="M324 0C321 43.9 318.1 87.8 299.3 124C280.6 160.1 246.1 188.5 213.5 213.5C181 238.6 150.4 260.2 115.2 278.1C79.9 295.9 40 310 0 324L0 0Z" fill="#605bff"></path></g></svg>