<?xml version="1.0" encoding="utf-8"?>
<!-- Generator: Adobe Illustrator 27.5.0, SVG Export Plug-In . SVG Version: 6.00 Build 0)  -->
<svg version="1.1" xmlns="http://www.w3.org/2000/svg" xmlns:xlink="http://www.w3.org/1999/xlink" x="0px" y="0px"
	 viewBox="0 0 500 500" style="enable-background:new 0 0 500 500;" xml:space="preserve">
<g id="BACKGROUND">
	<g>
		<rect x="0" style="fill:#FFFFFF;" width="500" height="500"/>
	</g>
</g>
<g id="OBJECTS">
	<g>
		<g>
			<path style="fill:none;stroke:#CFD2E2;stroke-width:0.7585;stroke-miterlimit:10;" d="M381.723,323.392H115.446
				c-2.017,0-3.652-1.635-3.652-3.652V153.516c0-2.017,1.635-3.652,3.652-3.652h266.277c2.017,0,3.652,1.635,3.652,3.652v166.225
				C385.375,321.758,383.74,323.392,381.723,323.392z"/>
			<path style="fill:#E1ECF8;" d="M396.832,310.279H130.555c-2.017,0-3.652-1.635-3.652-3.652V140.402
				c0-2.017,1.635-3.652,3.652-3.652h266.277c2.017,0,3.652,1.635,3.652,3.652v166.225
				C400.484,308.644,398.849,310.279,396.832,310.279z"/>
			<g>
				<path style="fill:#006BE3;" d="M152.02,147.327c0,1.911-1.55,3.461-3.461,3.461c-1.912,0-3.461-1.55-3.461-3.461
					c0-1.911,1.549-3.461,3.461-3.461C150.47,143.866,152.02,145.416,152.02,147.327z"/>
				<path style="fill:#FB7341;" d="M163.533,147.327c0,1.911-1.55,3.461-3.461,3.461c-1.911,0-3.461-1.55-3.461-3.461
					c0-1.911,1.55-3.461,3.461-3.461C161.983,143.866,163.533,145.416,163.533,147.327z"/>
				<path style="fill:none;stroke:#E1B2B2;stroke-width:0.5196;stroke-miterlimit:10;" d="M175.046,147.327
					c0,1.911-1.549,3.461-3.461,3.461c-1.911,0-3.461-1.55-3.461-3.461c0-1.911,1.549-3.461,3.461-3.461
					C173.496,143.866,175.046,145.416,175.046,147.327z"/>
			</g>
		</g>
		<path style="fill:#FFFFFF;" d="M246.624,300.698h-98.512c-1.865,0-3.376-1.512-3.376-3.376V167.036
			c0-1.865,1.512-3.376,3.376-3.376h98.512c1.865,0,3.376,1.512,3.376,3.376v130.286C250,299.187,248.488,300.698,246.624,300.698z"
			/>
		<g>
			<g>
				<rect x="159.796" y="255.888" style="opacity:0.75;fill:#E1ECF8;" width="75.143" height="2.606"/>
				<rect x="159.796" y="261.23" style="opacity:0.75;fill:#E1ECF8;" width="75.143" height="2.606"/>
				<rect x="159.796" y="266.573" style="opacity:0.75;fill:#E1ECF8;" width="75.143" height="2.606"/>
				<rect x="159.796" y="271.916" style="opacity:0.75;fill:#E1ECF8;" width="75.143" height="2.606"/>
				<rect x="159.796" y="277.258" style="opacity:0.75;fill:#E1ECF8;" width="75.143" height="2.606"/>
				<rect x="159.796" y="282.6" style="opacity:0.75;fill:#E1ECF8;" width="75.143" height="2.606"/>
			</g>
			<g>
				<circle style="fill:#E1ECF8;" cx="193.271" cy="209.157" r="27.555"/>
				<polygon style="fill:#FFFFFF;" points="193.271,181.602 193.271,209.157 218.961,194.561 214.61,181.602 				"/>
				<path style="fill:#CFD2E2;" d="M219.805,190.514c-4.741-8.326-13.689-13.944-23.955-13.944v27.555L219.805,190.514z"/>
			</g>
			<rect x="168.762" y="239.884" style="fill:#E1ECF8;" width="6.837" height="6.837"/>
			<rect x="178.096" y="242.874" style="opacity:0.75;fill:#E1ECF8;" width="12.933" height="3.847"/>
			<rect x="206.116" y="239.884" style="fill:#CFD2E2;" width="6.837" height="6.837"/>
			<rect x="215.451" y="242.874" style="opacity:0.75;fill:#E1ECF8;" width="12.933" height="3.847"/>
		</g>
		<g>
			<g>
				<path style="fill:#CFD2E2;" d="M383.67,239.593H266.245c-1.235,0-2.236-1.001-2.236-2.237v-70.241
					c0-1.235,1.001-2.237,2.237-2.237H383.67c1.235,0,2.237,1.001,2.237,2.237v70.241
					C385.906,238.592,384.905,239.593,383.67,239.593z"/>
			</g>
			<g>
				
					<line style="fill:none;stroke:#E1ECF8;stroke-width:0.7224;stroke-miterlimit:10;" x1="288.336" y1="211.476" x2="349.512" y2="211.476"/>
				
					<line style="fill:none;stroke:#E1ECF8;stroke-width:0.7224;stroke-miterlimit:10;" x1="277.624" y1="218.36" x2="349.512" y2="218.36"/>
				
					<line style="fill:none;stroke:#E1ECF8;stroke-width:0.7224;stroke-miterlimit:10;" x1="277.624" y1="225.426" x2="292.154" y2="225.426"/>
				
					<line style="fill:none;stroke:#E1ECF8;stroke-width:0.7224;stroke-miterlimit:10;" x1="295.862" y1="225.426" x2="349.512" y2="225.426"/>
				
					<line style="fill:none;stroke:#E1ECF8;stroke-width:0.7224;stroke-miterlimit:10;" x1="277.624" y1="211.476" x2="284.127" y2="211.476"/>
				
					<line style="fill:none;stroke:#E1ECF8;stroke-width:0.7224;stroke-miterlimit:10;" x1="309.406" y1="204.236" x2="349.512" y2="204.236"/>
				
					<line style="fill:none;stroke:#E1ECF8;stroke-width:0.7224;stroke-miterlimit:10;" x1="277.624" y1="204.236" x2="305.474" y2="204.236"/>
				
					<line style="fill:none;stroke:#E1ECF8;stroke-width:0.7224;stroke-miterlimit:10;" x1="330.864" y1="196.056" x2="349.512" y2="196.056"/>
				
					<line style="fill:none;stroke:#E1ECF8;stroke-width:0.7224;stroke-miterlimit:10;" x1="312.314" y1="196.056" x2="328.243" y2="196.056"/>
				
					<line style="fill:none;stroke:#E1ECF8;stroke-width:0.7224;stroke-miterlimit:10;" x1="326.769" y1="188.4" x2="349.512" y2="188.4"/>
				
					<line style="fill:none;stroke:#E1ECF8;stroke-width:0.7224;stroke-miterlimit:10;" x1="312.314" y1="188.4" x2="323.656" y2="188.4"/>
				
					<line style="fill:none;stroke:#E1ECF8;stroke-width:0.7224;stroke-miterlimit:10;" x1="338.058" y1="180.145" x2="349.512" y2="180.145"/>
				
					<line style="fill:none;stroke:#E1ECF8;stroke-width:0.7224;stroke-miterlimit:10;" x1="311.763" y1="180.145" x2="334.14" y2="180.145"/>
			</g>
			<g>
				<path style="fill:#FE7D90;" d="M306.136,186.4c0,7.723-6.26,13.983-13.983,13.983c-7.723,0-13.983-6.26-13.983-13.983
					s6.26-13.983,13.983-13.983C299.876,172.417,306.136,178.677,306.136,186.4z"/>
				<g>
					<path style="fill:none;stroke:#FFFFFF;stroke-width:0.7224;stroke-miterlimit:10;" d="M287.944,181.23v10.34
						c0,0.834,0.903,1.355,1.625,0.938l8.955-5.17c0.722-0.417,0.722-1.459,0-1.876l-8.955-5.17
						C288.847,179.875,287.944,180.396,287.944,181.23z"/>
				</g>
			</g>
		</g>
		<g>
			<path style="fill:#FFFFFF;" d="M306.528,300.37h-40.07c-0.977,0-1.768-0.792-1.768-1.768v-48.206
				c0-0.976,0.792-1.768,1.768-1.768h40.071c0.976,0,1.768,0.792,1.768,1.768v48.206C308.296,299.578,307.504,300.37,306.528,300.37
				z"/>
			<path style="fill:#CFD2E2;" d="M296.927,280.732h-23.468c-0.679,0-1.23-0.551-1.23-1.23v-22.053c0-0.679,0.551-1.23,1.23-1.23
				h23.468c0.679,0,1.23,0.551,1.23,1.23v22.053C298.157,280.181,297.606,280.732,296.927,280.732z"/>
			<g>
				
					<line style="fill:none;stroke:#FE7D90;stroke-width:0.3436;stroke-miterlimit:10;" x1="272.229" y1="285.478" x2="297.491" y2="285.478"/>
				
					<line style="fill:none;stroke:#FE7D90;stroke-width:0.3436;stroke-miterlimit:10;" x1="272.229" y1="289.704" x2="285.193" y2="289.704"/>
				
					<line style="fill:none;stroke:#FE7D90;stroke-width:0.3436;stroke-miterlimit:10;" x1="272.229" y1="293.93" x2="291.115" y2="293.93"/>
			</g>
		</g>
		<g>
			<path style="fill:none;stroke:#FFFFFF;stroke-miterlimit:10;" d="M357.524,300.37h-40.07c-0.977,0-1.768-0.792-1.768-1.768
				v-48.206c0-0.976,0.792-1.768,1.768-1.768h40.071c0.976,0,1.768,0.792,1.768,1.768v48.206
				C359.292,299.578,358.5,300.37,357.524,300.37z"/>
			<path style="fill:none;stroke:#FFFFFF;stroke-miterlimit:10;" d="M347.923,280.732h-23.468c-0.679,0-1.23-0.551-1.23-1.23
				v-22.053c0-0.679,0.551-1.23,1.23-1.23h23.468c0.679,0,1.23,0.551,1.23,1.23v22.053
				C349.153,280.181,348.602,280.732,347.923,280.732z"/>
			<g>
				
					<line style="fill:none;stroke:#FFFFFF;stroke-width:0.3436;stroke-miterlimit:10;" x1="323.225" y1="285.478" x2="348.487" y2="285.478"/>
				
					<line style="fill:none;stroke:#FFFFFF;stroke-width:0.3436;stroke-miterlimit:10;" x1="323.225" y1="289.704" x2="336.189" y2="289.704"/>
				
					<line style="fill:none;stroke:#FFFFFF;stroke-width:0.3436;stroke-miterlimit:10;" x1="323.225" y1="293.93" x2="342.111" y2="293.93"/>
			</g>
		</g>
	</g>
	<g>
		<g>
			<path style="fill:none;stroke:#E1ECF8;stroke-width:0.7585;stroke-miterlimit:10;" d="M69.266,152.268H49.901
				c-0.992,0-1.795,0.815-1.795,1.821v10.891c0,1.005,0.804,1.821,1.795,1.821h7.891l6.635,7.401v-7.132l4.875-0.099
				c0.977-0.02,1.759-0.829,1.759-1.82v-11.062C71.061,153.083,70.257,152.268,69.266,152.268z"/>
			<path style="fill:none;stroke:#CFD2E2;stroke-width:1.0506;stroke-miterlimit:10;" d="M358.503,124.453h-26.822
				c-1.373,0-2.487,1.129-2.487,2.522v15.085c0,1.393,1.113,2.522,2.487,2.522h10.93l9.189,10.251v-9.878l6.752-0.137
				c1.354-0.027,2.437-1.148,2.437-2.521v-15.321C360.99,125.582,359.876,124.453,358.503,124.453z"/>
			<path style="fill:none;stroke:#E1ECF8;stroke-width:0.8387;stroke-miterlimit:10;" d="M41.72,304.803
				c0,3.031-2.423,5.488-5.412,5.488c-2.989,0-5.412-2.457-5.412-5.488s2.423-5.488,5.412-5.488
				C39.297,299.315,41.72,301.772,41.72,304.803z"/>
			<path style="fill:none;stroke:#E1ECF8;stroke-width:0.5826;stroke-miterlimit:10;" d="M104.966,179.848
				c0,2.105-1.683,3.812-3.759,3.812c-2.076,0-3.759-1.707-3.759-3.812s1.683-3.812,3.759-3.812
				C103.283,176.036,104.966,177.743,104.966,179.848z"/>
			<path style="fill:none;stroke:#E1ECF8;stroke-width:0.5826;stroke-miterlimit:10;" d="M178.805,95.95
				c0,2.105-1.683,3.812-3.759,3.812s-3.759-1.707-3.759-3.812c0-2.105,1.683-3.812,3.759-3.812S178.805,93.845,178.805,95.95z"/>
			<path style="fill:#E1ECF8;" d="M115.844,116.907c0,1.689-1.35,3.058-3.016,3.058c-1.666,0-3.016-1.369-3.016-3.058
				c0-1.689,1.35-3.058,3.016-3.058C114.494,113.849,115.844,115.218,115.844,116.907z"/>
			<path style="fill:#E1ECF8;" d="M423.631,285.206c0,1.689-1.35,3.058-3.016,3.058s-3.016-1.369-3.016-3.058
				c0-1.689,1.35-3.058,3.016-3.058S423.631,283.517,423.631,285.206z"/>
			<path style="fill:none;stroke:#E1ECF8;stroke-width:1.0527;stroke-miterlimit:10;" d="M81.131,233.579
				c0,3.804-3.041,6.888-6.793,6.888c-3.752,0-6.793-3.084-6.793-6.888c0-3.804,3.041-6.888,6.793-6.888
				C78.09,226.691,81.131,229.775,81.131,233.579z"/>
			<path style="fill:none;stroke:#E1ECF8;stroke-width:0.8387;stroke-miterlimit:10;" d="M448.488,240.467
				c0,2.208-1.765,3.998-3.943,3.998c-2.177,0-3.943-1.79-3.943-3.998c0-2.208,1.765-3.998,3.943-3.998
				C446.723,236.469,448.488,238.259,448.488,240.467z"/>
			
				<rect x="311.593" y="116.153" style="fill:none;stroke:#E1ECF8;stroke-width:0.8387;stroke-miterlimit:10;" width="8.185" height="8.3"/>
			<rect x="418.523" y="158.217" style="fill:#E1ECF8;" width="8.185" height="8.3"/>
			<rect x="75.719" y="214.802" style="fill:#E1ECF8;" width="18.341" height="18.599"/>
			
				<ellipse style="fill:none;stroke:#E1ECF8;stroke-width:0.8582;stroke-miterlimit:10;" cx="233.921" cy="103.167" rx="5.538" ry="5.615"/>
			
				<rect x="235.047" y="87.859" style="fill:none;stroke:#E1ECF8;stroke-width:0.8153;stroke-miterlimit:10;" width="14.953" height="15.163"/>
		</g>
	</g>
	<g>
		<g>
			<ellipse style="fill:#E1ECF8;" cx="152.02" cy="371.385" rx="117.667" ry="11"/>
			<g>
				<path style="fill:#FFFFFF;" d="M257.232,371.385c-0.028,0.594-0.494,1.021-0.939,1.333c-0.457,0.324-0.96,0.57-1.471,0.791
					c-1.023,0.442-2.087,0.777-3.158,1.076c-2.146,0.589-4.327,1.037-6.515,1.43c-4.378,0.783-8.792,1.351-13.21,1.848
					c-8.84,0.976-17.712,1.629-26.589,2.145c-17.757,1.016-35.545,1.452-53.33,1.4c-17.784-0.036-35.57-0.451-53.327-1.451
					c-8.876-0.522-17.749-1.138-26.593-2.08c-4.42-0.481-8.836-1.032-13.219-1.8c-2.191-0.386-4.375-0.826-6.527-1.408
					c-1.075-0.296-2.142-0.628-3.174-1.069c-0.515-0.22-1.024-0.467-1.493-0.796c-0.451-0.317-0.953-0.752-0.99-1.419
					c0.035-0.667,0.536-1.105,0.986-1.424c0.468-0.331,0.976-0.579,1.491-0.802c1.031-0.445,2.099-0.781,3.173-1.081
					c2.151-0.59,4.335-1.038,6.525-1.432c4.382-0.783,8.797-1.35,13.217-1.847c8.843-0.977,17.717-1.63,26.596-2.12
					c17.761-0.972,35.549-1.359,53.334-1.372c17.785-0.021,35.574,0.421,53.33,1.444c8.877,0.522,17.749,1.175,26.589,2.152
					c4.418,0.498,8.831,1.066,13.21,1.849c2.188,0.394,4.369,0.842,6.515,1.431c1.071,0.299,2.135,0.634,3.158,1.076
					c0.511,0.22,1.014,0.467,1.471,0.791C256.738,370.364,257.204,370.791,257.232,371.385z M257.182,371.385
					c-0.027-0.561-0.479-0.98-0.922-1.286c-0.452-0.318-0.954-0.561-1.464-0.778c-1.02-0.435-2.083-0.765-3.154-1.058
					c-2.145-0.578-4.325-1.015-6.513-1.399c-4.378-0.763-8.791-1.31-13.209-1.787c-8.84-0.936-17.711-1.549-26.587-2.014
					c-17.756-0.91-35.536-1.232-53.313-1.268c-17.777,0.002-35.558,0.379-53.309,1.34c-8.873,0.497-17.743,1.109-26.58,2.046
					c-4.416,0.478-8.828,1.026-13.202,1.789c-2.186,0.383-4.364,0.821-6.503,1.398c-1.067,0.293-2.127,0.622-3.139,1.054
					c-0.505,0.215-1.002,0.457-1.443,0.767c-0.438,0.299-0.855,0.707-0.875,1.195c0.018,0.488,0.434,0.899,0.871,1.199
					c0.441,0.313,0.938,0.556,1.442,0.773c1.011,0.436,2.07,0.769,3.137,1.066c2.138,0.585,4.315,1.03,6.501,1.422
					c4.373,0.779,8.784,1.343,13.2,1.836c8.835,0.971,17.705,1.621,26.583,2.086c17.756,0.934,35.538,1.282,53.316,1.261
					c17.778-0.067,35.558-0.395,53.314-1.312c8.876-0.471,17.747-1.084,26.587-2.021c4.418-0.477,8.831-1.025,13.209-1.788
					c2.188-0.384,4.368-0.821,6.513-1.4c1.07-0.294,2.133-0.624,3.154-1.059c0.509-0.217,1.011-0.46,1.464-0.778
					C256.703,372.365,257.155,371.947,257.182,371.385z"/>
			</g>
			<g>
				<path style="fill:#FFFFFF;" d="M239.399,371.385c-0.023,0.493-0.41,0.848-0.78,1.107c-0.379,0.269-0.798,0.474-1.222,0.657
					c-0.85,0.367-1.733,0.645-2.623,0.893c-1.782,0.489-3.594,0.861-5.411,1.188c-3.636,0.651-7.301,1.122-10.971,1.535
					c-7.342,0.811-14.71,1.353-22.083,1.782c-14.747,0.844-29.52,1.206-44.291,1.163c-14.77-0.03-29.541-0.375-44.288-1.205
					c-7.372-0.434-14.741-0.943-22.087-1.724c-3.671-0.398-7.339-0.855-10.98-1.492c-1.82-0.32-3.634-0.685-5.422-1.168
					c-0.893-0.246-1.78-0.521-2.638-0.887c-0.428-0.183-0.852-0.388-1.242-0.661c-0.375-0.264-0.795-0.626-0.827-1.187
					c0.03-0.561,0.449-0.926,0.824-1.191c0.39-0.275,0.812-0.482,1.241-0.666c0.857-0.37,1.744-0.648,2.637-0.897
					c1.787-0.49,3.601-0.861,5.42-1.187c3.64-0.65,7.307-1.119,10.978-1.531c7.345-0.809,14.714-1.349,22.089-1.757
					c14.751-0.807,29.524-1.129,44.295-1.139c14.771-0.017,29.544,0.35,44.291,1.199c7.372,0.434,14.741,0.976,22.082,1.787
					c3.669,0.413,7.335,0.885,10.971,1.536c1.817,0.327,3.629,0.699,5.411,1.188c0.889,0.248,1.773,0.527,2.623,0.894
					c0.424,0.183,0.842,0.388,1.222,0.657C238.989,370.537,239.376,370.892,239.399,371.385z M239.358,371.385
					c-0.023-0.466-0.398-0.814-0.766-1.068c-0.376-0.264-0.793-0.466-1.216-0.646c-0.847-0.361-1.73-0.635-2.619-0.879
					c-1.781-0.48-3.592-0.843-5.409-1.162c-3.636-0.633-7.301-1.088-10.97-1.484c-7.341-0.778-14.709-1.287-22.081-1.673
					c-14.746-0.756-29.513-1.023-44.277-1.053c-14.764,0.002-29.531,0.315-44.274,1.113c-7.369,0.412-14.736,0.923-22.074,1.704
					c-3.668,0.398-7.331,0.854-10.963,1.489c-1.815,0.319-3.624,0.683-5.399,1.163c-0.886,0.243-1.766,0.517-2.605,0.876
					c-0.419,0.179-0.831,0.379-1.197,0.636c-0.363,0.247-0.706,0.586-0.721,0.984c0.014,0.398,0.356,0.739,0.719,0.988
					c0.365,0.259,0.777,0.461,1.196,0.641c0.839,0.362,1.718,0.639,2.604,0.885c1.775,0.486,3.583,0.857,5.398,1.182
					c3.631,0.648,7.294,1.117,10.961,1.528c7.338,0.809,14.704,1.351,22.077,1.737c14.746,0.775,29.515,1.065,44.28,1.048
					c14.765-0.055,29.531-0.328,44.277-1.09c7.372-0.391,14.739-0.9,22.081-1.679c3.669-0.397,7.334-0.851,10.97-1.485
					c1.817-0.319,3.628-0.682,5.409-1.162c0.889-0.244,1.772-0.518,2.619-0.879c0.423-0.18,0.84-0.382,1.216-0.646
					C238.96,372.199,239.335,371.851,239.358,371.385z"/>
			</g>
			<g>
				<path style="fill:#FFFFFF;" d="M205.518,371.385c-0.014,0.302-0.251,0.519-0.477,0.678c-0.232,0.165-0.488,0.29-0.748,0.402
					c-0.52,0.225-1.061,0.395-1.606,0.547c-1.091,0.299-2.2,0.527-3.313,0.727c-2.226,0.398-4.47,0.687-6.717,0.94
					c-4.495,0.497-9.006,0.828-13.52,1.091c-9.029,0.517-18.074,0.738-27.117,0.712c-9.043-0.018-18.087-0.229-27.115-0.738
					c-4.513-0.266-9.025-0.578-13.522-1.055c-2.248-0.244-4.493-0.524-6.722-0.913c-1.114-0.196-2.225-0.419-3.32-0.715
					c-0.547-0.15-1.09-0.319-1.615-0.543c-0.262-0.112-0.521-0.237-0.76-0.405c-0.23-0.162-0.487-0.383-0.506-0.727
					c0.018-0.344,0.275-0.567,0.505-0.729c0.238-0.169,0.497-0.295,0.759-0.408c0.525-0.226,1.068-0.397,1.614-0.549
					c1.094-0.3,2.205-0.527,3.319-0.727c2.229-0.398,4.474-0.685,6.721-0.937c4.497-0.495,9.009-0.826,13.524-1.076
					c9.031-0.494,18.076-0.691,27.119-0.698c9.043-0.011,18.088,0.214,27.117,0.734c4.514,0.265,9.025,0.597,13.52,1.094
					c2.247,0.253,4.491,0.542,6.717,0.94c1.113,0.2,2.221,0.428,3.313,0.728c0.545,0.152,1.086,0.323,1.606,0.547
					c0.26,0.112,0.516,0.237,0.748,0.402C205.266,370.866,205.504,371.083,205.518,371.385z M205.492,371.385
					c-0.014-0.285-0.243-0.498-0.469-0.654c-0.23-0.162-0.485-0.285-0.744-0.396c-0.519-0.221-1.059-0.389-1.604-0.538
					c-1.09-0.294-2.199-0.516-3.312-0.711c-2.226-0.388-4.47-0.666-6.717-0.909c-4.495-0.476-9.005-0.788-13.519-1.024
					c-9.028-0.463-18.069-0.626-27.108-0.645c-9.039,0.001-18.08,0.193-27.106,0.681c-4.512,0.252-9.022,0.565-13.515,1.043
					c-2.245,0.244-4.488,0.523-6.712,0.912c-1.111,0.195-2.219,0.418-3.306,0.712c-0.542,0.149-1.081,0.317-1.595,0.536
					c-0.257,0.109-0.509,0.232-0.733,0.39c-0.222,0.151-0.432,0.358-0.442,0.602c0.008,0.244,0.218,0.452,0.44,0.605
					c0.224,0.158,0.476,0.282,0.732,0.393c0.514,0.221,1.052,0.391,1.594,0.542c1.087,0.298,2.194,0.525,3.305,0.724
					c2.223,0.397,4.466,0.684,6.711,0.936c4.492,0.495,9.002,0.827,13.516,1.063c9.028,0.475,18.07,0.652,27.11,0.641
					c9.04-0.034,18.08-0.201,27.109-0.667c4.513-0.239,9.024-0.551,13.519-1.028c2.246-0.243,4.49-0.521,6.716-0.909
					c1.113-0.195,2.221-0.418,3.312-0.712c0.544-0.149,1.085-0.317,1.604-0.538c0.259-0.11,0.514-0.234,0.744-0.396
					C205.249,371.884,205.478,371.671,205.492,371.385z"/>
			</g>
			<g>
				<path style="fill:#FFFFFF;" d="M176.324,371.385c-0.054,0.272-0.34,0.381-0.559,0.49c-0.237,0.101-0.482,0.181-0.73,0.248
					c-0.496,0.136-0.999,0.242-1.505,0.332c-1.011,0.182-2.031,0.312-3.051,0.427c-2.042,0.227-4.091,0.377-6.142,0.496
					c-4.102,0.235-8.21,0.333-12.318,0.322c-4.108-0.01-8.216-0.104-12.318-0.335c-2.05-0.12-4.1-0.262-6.143-0.479
					c-1.021-0.111-2.041-0.236-3.054-0.415c-0.507-0.087-1.01-0.192-1.508-0.326c-0.249-0.066-0.495-0.145-0.734-0.246
					c-0.219-0.112-0.514-0.21-0.577-0.514c0.063-0.304,0.357-0.403,0.576-0.516c0.239-0.102,0.485-0.182,0.733-0.249
					c0.497-0.136,1.001-0.242,1.507-0.331c1.012-0.182,2.032-0.311,3.053-0.426c2.043-0.225,4.092-0.376,6.143-0.489
					c4.103-0.226,8.212-0.313,12.32-0.317c4.108-0.003,8.217,0.096,12.319,0.332c2.051,0.119,4.1,0.271,6.142,0.498
					c1.02,0.116,2.04,0.245,3.051,0.428c0.506,0.089,1.009,0.196,1.505,0.332c0.248,0.067,0.493,0.147,0.73,0.248
					C175.984,371.004,176.271,371.114,176.324,371.385z M176.313,371.385c-0.052-0.258-0.335-0.37-0.553-0.476
					c-0.236-0.099-0.481-0.178-0.729-0.243c-0.495-0.133-0.998-0.237-1.504-0.324c-1.011-0.177-2.031-0.301-3.051-0.412
					c-2.042-0.216-4.091-0.357-6.141-0.465c-4.101-0.213-8.208-0.286-12.314-0.296c-4.106,0.002-8.214,0.087-12.314,0.31
					c-2.05,0.114-4.098,0.256-6.139,0.474c-1.02,0.111-2.039,0.236-3.049,0.414c-0.505,0.087-1.007,0.191-1.501,0.324
					c-0.247,0.065-0.491,0.144-0.725,0.243c-0.217,0.102-0.493,0.224-0.536,0.45c0.042,0.226,0.317,0.35,0.535,0.452
					c0.234,0.1,0.477,0.179,0.724,0.245c0.494,0.135,0.996,0.241,1.501,0.33c1.01,0.182,2.029,0.31,3.049,0.425
					c2.041,0.226,4.09,0.376,6.14,0.484c4.101,0.217,8.209,0.296,12.315,0.292c4.106-0.017,8.213-0.091,12.315-0.305
					c2.05-0.109,4.099-0.25,6.141-0.467c1.02-0.111,2.04-0.235,3.051-0.413c0.506-0.087,1.009-0.191,1.504-0.324
					c0.248-0.065,0.493-0.144,0.729-0.244C175.978,371.756,176.261,371.644,176.313,371.385z"/>
			</g>
		</g>
		<g>
			<g>
				<path style="fill:#F4B5C7;" d="M120.645,279.577c0.101,1.355,1.453,4.001,2.672,5.487c0.434,0.529,0.995,0.947,1.624,1.216
					c0.691,0.296,1.184,0.307,3.159,0.348c2.652,0.055-3.434,5.477-7.459,8.83c-1.862,1.551-4.581,1.453-6.34-0.214
					c-3.217-3.047-7.345-7.574-4.302-8.265c0.844-0.192,1.153-0.893,1.64-2.318c0.848-2.787,0.804-10.066,0.224-11.424"/>
			</g>
			<g>
				<path style="fill:#F9C4D1;" d="M129.404,260.798c0.828,2.645-0.817,5.362-1.296,8.092c-0.329,1.877-0.098,3.804-0.186,5.708
					c-0.087,1.904-0.572,3.927-1.997,5.193c-1.212,1.077-2.917,1.427-4.539,1.425c-3.784-0.005-7.528-1.798-9.904-4.743
					c-2.377-2.945-3.338-6.983-2.544-10.683c0.286-1.335,0.787-2.618,1.41-3.832c1.603-3.122,4.21-5.911,7.588-6.862
					c3.378-0.951,7.507,0.412,8.976,3.599"/>
			</g>
			<g>
				<path style="fill:#FE7D90;" d="M122.417,252.894c0.252-0.278,0.635-0.179,0.954-0.027c1.915,0.911,3.447,3.333,3.814,6.031
					c0.121,0.891,0.107,1.875-0.29,2.563c-0.244,0.424-0.606,0.688-0.969,0.91c-4.595,2.812-10.492,0.567-14.862,3.941
					c-0.189-2.622,0.386-5.232,1.403-7.385c1.018-2.154,2.458-3.878,4.04-5.261c1.305-1.141,2.938-2.081,4.438-1.257"/>
			</g>
			<g>
				<path style="fill:#FE7D90;" d="M114.267,262.77c-1.096,0.73-1.848,1.956-2.001,3.264c-0.154,1.314,0.237,2.772-0.476,3.886
					c-0.055,0.086-0.121,0.172-0.215,0.208c-0.412,0.158-0.596-0.682-1.038-0.686c-0.553,0.588-0.633,1.479-0.541,2.28
					c0.092,0.802,0.325,1.594,0.283,2.4c-0.006,0.12-0.02,0.245-0.088,0.344c-0.142,0.206-0.442,0.208-0.688,0.165
					c-1.507-0.269-2.697-1.436-3.576-2.689c-2.209-3.147-3.054-7.177-2.5-10.982c0.163-1.122,0.451-2.249,1.058-3.207
					c0.606-0.958,1.569-1.736,2.688-1.916c0.106-1.457,0.345-3.011,1.34-4.081c0.651-0.7,1.553-1.107,2.449-1.441
					c4.404-1.642,11.305-1.663,14.15,2.834c0.458,0.724,0.774,1.563,0.718,2.414c-0.117,1.787-1.758,3.087-3.321,4.038
					c-2.132,1.298-4.391,2.4-6.734,3.285"/>
			</g>
			<g>
				<path style="fill:#FE7D90;" d="M109.337,253.583c-1.602-1.397-3.615-2.318-5.719-2.615c-2.626-0.371-5.524,0.33-7.268,2.329
					c-1.632,1.872-2.027,4.534-3.432,6.581c-2.378,3.465-7.073,4.477-10.097,7.395c-0.885,0.854-1.647,1.955-1.661,3.185
					c-0.017,1.529,1.112,2.864,1.234,4.388c0.22,2.747-2.821,4.972-2.567,7.716c0.22,2.379,2.793,3.796,5.136,4.263
					c3.514,0.699,7.336,0.172,10.316-1.817c2.98-1.989,4.983-5.519,4.765-9.095c-0.095-1.557-0.586-3.083-0.542-4.642
					c0.079-2.81,1.877-5.373,1.869-8.184c-0.004-1.277-0.359-2.671,0.316-3.755c0.299-0.481,0.767-0.829,1.224-1.164
					c1.387-1.02,3.242-2.072,4.705-1.165"/>
			</g>
			<g>
				<path style="fill:#FE7D90;" d="M125.426,254.594c2.007-0.968,4.702-0.099,5.766,1.86c0.537,0.989,0.674,2.138,0.797,3.257
					c0.109,0.987,0.212,2.007-0.079,2.957c-0.186,0.606-0.523,1.151-0.857,1.69c-0.886,1.428-1.951,2.577-2.837,4.005
					c0.516-3.234,0.404-4.233-0.079-6.307c-0.483-2.073-2.396-3.79-3.823-5.37"/>
			</g>
			<g>
				<path style="fill:#F9C4D1;" d="M112.069,270.091c0.179-0.154-0.022-0.435-0.212-0.576c-0.383-0.284-0.774-0.573-1.226-0.725
					c-0.452-0.153-0.983-0.149-1.373,0.125c-0.369,0.259-0.551,0.711-0.647,1.152c-0.335,1.547,0.233,3.256,1.428,4.294
					c0.481,0.418,1.103,0.74,1.734,0.652c0.631-0.089,1.197-0.726,1.026-1.339"/>
			</g>
			<path style="fill:#E588A7;" d="M124.509,275.361c0.14,0.345,0.023,2.048-1.434,2.495c-1.222,0.375-3.592-0.355-3.419-1.617
				C119.831,275.749,124.369,275.017,124.509,275.361z"/>
			<g>
				<g>
					<path style="fill:#E588A7;" d="M122.261,270.917c0.097,0.315,0.331,0.537,0.592,0.726c0.292,0.212,0.552,0.374,0.5,0.798
						c-0.038,0.311-0.438,0.581-0.604,0.843c-0.062,0.098,0.04,0.219,0.147,0.191c0.609-0.159,1.074-0.879,0.802-1.496
						c-0.263-0.596-1.091-0.55-1.354-1.097C122.321,270.835,122.246,270.868,122.261,270.917L122.261,270.917z"/>
				</g>
			</g>
			<g>
				<path style="fill:#8E5169;" d="M126.826,266.691c-0.403-0.53-0.963-0.615-1.368,0.53c-0.255,0.721-0.257,2.104,0.741,2.215
					C127.723,269.606,127.483,267.556,126.826,266.691z"/>
				<path style="fill:#FFFFFF;" d="M126.966,267.331c-0.179-0.235-0.427-0.273-0.607,0.235c-0.113,0.319-0.114,0.933,0.329,0.982
					C127.364,268.623,127.258,267.714,126.966,267.331z"/>
				<g>
					<g>
						<path style="fill:#8E5169;" d="M123.82,264.763c0.462-0.373,0.962-0.704,1.539-0.864c0.702-0.195,1.201-0.043,1.769,0.378
							c0.09,0.066,0.191-0.059,0.144-0.144c-0.715-1.296-2.955-0.422-3.532,0.569C123.71,264.754,123.777,264.797,123.82,264.763
							L123.82,264.763z"/>
					</g>
				</g>
			</g>
			<g>
				<path style="fill:#8E5169;" d="M117.541,267.218c-0.449-0.56-1.076-0.648-1.534,0.565c-0.288,0.763-0.294,2.226,0.822,2.34
					C118.536,270.298,118.274,268.131,117.541,267.218z"/>
				<path style="fill:#FFFFFF;" d="M117.696,267.894c-0.199-0.248-0.477-0.287-0.68,0.25c-0.128,0.338-0.131,0.987,0.365,1.038
					C118.138,269.259,118.021,268.298,117.696,267.894z"/>
				<g>
					<g>
						<path style="fill:#8E5169;" d="M118.896,265.001c-1.563-0.449-3.853,0.109-4.606,1.698c-0.053,0.111,0.076,0.218,0.172,0.133
							c0.631-0.561,1.142-1.12,1.957-1.434c0.777-0.299,1.61-0.346,2.427-0.217C118.963,265.201,119.015,265.035,118.896,265.001
							L118.896,265.001z"/>
					</g>
				</g>
			</g>
			<path style="fill:#F9AFC7;" d="M119.079,272.8c0.03-0.425-0.163-0.858-0.691-1.229c-0.907-0.637-2.245-0.658-3.258-0.3
				c-0.45,0.159-0.863,0.504-0.972,0.968c-0.067,0.285-0.014,0.587,0.086,0.861c0.365,1,1.409,1.738,2.483,1.668
				C117.718,274.703,119.002,273.875,119.079,272.8z"/>
			<path style="fill:#F9AFC7;" d="M127.573,271.785c0.014-0.336-0.107-0.68-0.429-0.979c-0.554-0.514-1.36-0.544-1.968-0.271
				c-0.27,0.121-0.516,0.39-0.577,0.756c-0.037,0.225-0.003,0.464,0.061,0.682c0.23,0.795,0.868,1.39,1.515,1.345
				C126.772,273.277,127.538,272.635,127.573,271.785z"/>
		</g>
		<path style="fill:#F9C4D1;" d="M84.062,317.635c0,0-4.891,8.125-3.696,13.375c1.196,5.25,11.571,10,27.446,13.625
			c11-2.625,2.861-5.375,2.861-5.375l-16.099-9l2.238-9.625L84.062,317.635z"/>
		<path style="fill:#F9C4D1;" d="M152.96,319.802c0,0,4.891,8.125,3.696,13.375c-1.196,5.25-11.571,10-27.446,13.625
			c-11-2.625-2.861-5.375-2.861-5.375l16.098-9l-2.238-9.625L152.96,319.802z"/>
		<g>
			<path style="fill:#3E89CC;" d="M110.419,286.79c3.234,7.081,12.251,6.926,14.683-0.408c0,0,3.79,0.345,6.312,4.758
				c0,0,5.772,14.871,7.897,29.871c2,15.25-1.625,19.25-1.625,19.25l-8.632,2.25l-31.243-5.625c0,0-2.75-17.045,0.875-30.835
				C102.312,292.26,104.687,291.93,110.419,286.79z"/>
			<path style="fill:#3E89CC;" d="M110.419,286.79c0,0-12.607-0.342-17.357,6.877c-3.812,5.793-10.039,19.254-12.35,24.345
				c-0.637,1.404-0.385,3.067,0.686,4.177c1.981,2.052,6.08,4.71,13.717,3.978c9.696-7.156,10.946-23.888,10.946-23.888
				L110.419,286.79z"/>
			<path style="fill:#3E89CC;" d="M125.102,286.382c0,0,10.335,0.461,14.21,3.357c2.965,2.216,11.272,17.371,15.29,24.817
				c1.26,2.335,0.439,5.267-1.878,6.56c-3.823,2.133-8.52,4.161-13.537,4.52c-7,0.5-7.795-5.75-7.772-6.25
				C131.437,318.885,125.102,286.382,125.102,286.382z"/>
			<g>
				<path style="fill:#1979BF;" d="M101.207,306.023c-0.591,1.334-1.084,2.687-1.546,4.038c-0.442,1.358-0.823,2.727-1.086,4.116
					c-0.281,1.387-0.387,2.794-0.405,4.205c0.003,1.417,0.212,2.819,0.517,4.254c-0.668-1.291-1.16-2.723-1.296-4.208
					c-0.146-1.478-0.075-2.981,0.202-4.438C98.183,311.09,99.374,308.309,101.207,306.023z"/>
			</g>
			<g>
				<path style="fill:#1979BF;" d="M135.192,306.023c1.832,2.286,3.024,5.067,3.614,7.967c0.277,1.457,0.348,2.96,0.202,4.438
					c-0.136,1.484-0.628,2.917-1.296,4.208c0.305-1.435,0.514-2.837,0.517-4.254c-0.018-1.412-0.124-2.818-0.405-4.205
					c-0.264-1.389-0.644-2.758-1.086-4.116C136.276,308.71,135.783,307.357,135.192,306.023z"/>
			</g>
		</g>
		<g>
			<path style="fill:#57C6F2;" d="M99.901,342.51c0,0-32.074-8.023-36.741,6.092c-4.667,14.116,17.68,25.116,60.673,23.949
				c1.66-3.167,0.381-11,0.381-11l-5.27-14.174L99.901,342.51z"/>
			<path style="fill:#57C6F2;" d="M138.399,342.51c0,0,32.074-8.023,36.741,6.092c4.667,14.116-17.68,25.116-60.673,23.949
				c-1.66-3.167-0.381-11-0.381-11l5.27-14.174L138.399,342.51z"/>
			<path style="fill:#F9C4D1;" d="M124.214,361.552c0,0,12.113,3.583,13.113,4.583c1.125-2,3.125-4.75,5.25-2.75
				c2.5,2.375,4.547,3.5,7.211,4.125s6.414,2.125,5.539,3s-20.624,2.029-31.523,2.103
				C124.423,370.612,125.396,364.734,124.214,361.552z"/>
			<g>
				<path style="fill:#44B5D8;" d="M90.654,351.76c2.898,0.394,5.765,0.964,8.62,1.588c2.857,0.615,5.685,1.355,8.5,2.141
					c2.809,0.807,5.599,1.688,8.347,2.687c2.748,1,5.462,2.099,8.093,3.376c-1.402-0.422-2.767-0.93-4.169-1.335
					c-1.38-0.464-2.775-0.885-4.167-1.31c-2.793-0.823-5.574-1.674-8.378-2.456L90.654,351.76z"/>
			</g>
			<g>
				<path style="fill:#44B5D8;" d="M153.951,347.378c-1.421,0.384-2.84,0.748-4.244,1.177c-1.412,0.392-2.816,0.808-4.21,1.255
					c-2.788,0.891-5.559,1.817-8.289,2.854c-2.728,1.04-5.401,2.207-8.04,3.456c-1.289,0.678-2.613,1.306-3.851,2.08
					c-1.302,0.678-2.478,1.545-3.735,2.32c2.193-1.967,4.662-3.618,7.229-5.082c2.589-1.427,5.291-2.636,8.041-3.708
					c2.768-1.025,5.576-1.936,8.434-2.657C148.143,348.348,151.027,347.727,153.951,347.378z"/>
			</g>
		</g>
		<g>
			<path style="fill:#E1ECF8;" d="M145.937,352.759H94.014v-32.539c0-1.323,1.073-2.396,2.396-2.396h47.13
				c1.324,0,2.396,1.073,2.396,2.396V352.759z"/>
			<rect x="94.014" y="352.759" style="fill:#CCDBEA;" width="51.923" height="1.625"/>
			<path style="fill:#CCDBEA;" d="M124.944,335.292c0,2.744-2.225,4.969-4.969,4.969s-4.969-2.225-4.969-4.969
				c0-2.744,2.225-4.969,4.969-4.969S124.944,332.548,124.944,335.292z"/>
		</g>
		<g>
			
				<line style="fill:none;stroke:#CFD2E2;stroke-width:2;stroke-linecap:round;stroke-miterlimit:10;" x1="214.853" y1="328.665" x2="214.853" y2="372.22"/>
			<g>
				
					<line style="fill:none;stroke:#CFD2E2;stroke-width:2;stroke-linecap:round;stroke-miterlimit:10;" x1="230.705" y1="329.054" x2="240.788" y2="372.637"/>
				
					<line style="fill:none;stroke:#CFD2E2;stroke-width:2;stroke-linecap:round;stroke-miterlimit:10;" x1="199.002" y1="329.054" x2="188.918" y2="372.637"/>
			</g>
			<path style="fill:#544D7C;" d="M245.02,330.22h-59.333c-0.921,0-1.667-0.746-1.667-1.667l0,0c0-0.921,0.746-1.667,1.667-1.667
				h59.333c0.92,0,1.667,0.746,1.667,1.667l0,0C246.687,329.474,245.94,330.22,245.02,330.22z"/>
		</g>
		<g>
			<g>
				<g>
					<g>
						<polygon style="opacity:0.35;fill:#8BC0ED;" points="203.745,326.887 204.648,313.471 196.112,313.471 197.015,326.887 						
							"/>
					</g>
				</g>
			</g>
			<g>
				<g>
					<g>
						<polygon style="fill:#B4EFF9;" points="197.781,326.068 196.988,314.29 203.772,314.29 202.98,326.068 						"/>
					</g>
				</g>
			</g>
			<g>
				<g>
					<g>
						<polygon style="fill:#8BC0ED;" points="197.248,318.155 197.781,326.068 202.98,326.068 203.512,318.155 						"/>
					</g>
				</g>
			</g>
			<g style="opacity:0.75;">
				<g>
					<g>
						<path style="fill:#FFFFFF;" d="M198.329,324.364h1.419l-0.838-8.426c-0.172-1.505-1.578-1.587-1.357,0.129L198.329,324.364z"
							/>
					</g>
				</g>
			</g>
		</g>
		<g>
			<g>
				<path style="fill:#FF99AD;" d="M217.27,316.361c0,0-7.64-19.15-3.076-21.035c4.564-1.885,4.465,19.249,4.465,21.035
					C218.66,318.147,217.27,316.361,217.27,316.361z"/>
				<path style="fill:#FF99AD;" d="M220.346,316.361c0,0-6.152-41.475,1.091-42.467c7.243-0.992,2.084,40.185,0.695,43.261
					C220.049,316.956,220.346,316.361,220.346,316.361z"/>
				<path style="fill:#FF99AD;" d="M224.018,317.154c0,0,1.191-29.668,6.449-29.37c5.259,0.298-5.255,29.37-5.255,29.37H224.018z"/>
			</g>
			<g>
				<polygon style="fill:#FE7D90;" points="229.311,318.053 229.227,318.488 227.499,326.885 215.622,326.885 213.895,318.488 
					213.81,318.053 				"/>
				<polygon style="opacity:0.3;fill:#8BC0ED;" points="229.311,318.053 229.227,318.488 213.895,318.488 213.81,318.053 				"/>
				<path style="fill:#FE7D90;" d="M229.89,318.058h-16.659c-0.571,0-1.034-0.463-1.034-1.034v-0.431
					c0-0.571,0.463-1.034,1.034-1.034h16.659c0.571,0,1.034,0.463,1.034,1.034v0.431
					C230.924,317.595,230.461,318.058,229.89,318.058z"/>
			</g>
		</g>
	</g>
	<g>
		<ellipse style="fill:#E1ECF8;" cx="373.18" cy="372.319" rx="49.435" ry="9.233"/>
		<ellipse style="fill:#E1ECF8;" cx="435.721" cy="374.076" rx="33.617" ry="5.476"/>
		<g>
			<g>
				<path style="fill:#F9C4D1;" d="M356.631,185.058c-8.022,7.915-13.604,18.995-18.573,29.744
					c-7.914-6.974-17.333-13.006-25.744-19.662l0.099,2.487c5.451,12.145,19.383,30.387,26.73,31.107
					c3.601,0,17.242-12.663,23.519-21.004"/>
			</g>
			<g>
				<path style="fill:#1B227A;" d="M359.199,364.512l-3.77-0.041c0.016,1.755-6.228,3.319-8.915,5.08
					c-0.793,0.52-2.268,1.54-1.318,2.46c0.567,0.549,1.784,0.736,2.59,0.716c3.325-0.083,6.705-0.021,9.763-1.115
					c1.228-0.439,2.541-1.08,2.868-2.162C360.85,368.017,359.167,366.98,359.199,364.512z"/>
			</g>
			<g>
				<path style="fill:#1B227A;" d="M401.063,367.205l-3.69-0.041c0.015,1.755-6.083,3.319-8.71,5.08
					c-0.775,0.52-2.217,1.54-1.288,2.46c0.554,0.549,1.744,0.736,2.531,0.716c3.25-0.083,6.554-0.021,9.543-1.115
					c1.201-0.439,2.484-1.08,2.804-2.162C402.676,370.711,401.032,369.674,401.063,367.205z"/>
			</g>
			<g>
				<path style="fill:#3E89CC;" d="M355.797,250.785c-4.865,24.741-4.865,36.09-5.454,54.318
					c-0.716,22.141,2.608,42.67,3.913,60.819c0,0,2.798,1.358,5.293,0.064c2.381-11.093,9.419-31.772,6.983-46.479
					c-0.438-2.642-0.797-5.298-0.829-7.976c-0.075-6.277,17.772-36.267,14.205-64.928"/>
			</g>
			<g>
				<path style="fill:#3E89CC;" d="M372.124,242.369c-1.642,16.195,6.072,55.068,9.099,70.078
					c3.949,19.584,14.103,53.061,14.785,56.164c1.303,0.873,5.214-0.066,5.214-0.066c0.227-14.906,4.058-36.091-1.215-50.269
					c-0.948-2.547-1.988-5.098-2.303-7.762c-0.299-2.53,8.559-31.049,7.015-43.153c-0.815-6.395-3.095-14.113-8.689-21.104"/>
			</g>
			<g>
				<g>
					<path style="fill:#1979BF;" d="M398.999,259.668c-2.118,0.384-4.442,1.057-6.606,0.908c-1.605-0.11-1.985-0.641-2.454-2.184
						c-0.266-0.875-0.353-1.753-0.703-2.605c-0.13-0.316-0.572-0.278-0.601,0.081c-0.124,1.531,0.415,4.783,2.079,5.505
						c1.105,0.48,2.811,0.016,3.93-0.131c1.54-0.203,3.04-0.508,4.515-0.996C399.529,260.125,399.377,259.599,398.999,259.668
						L398.999,259.668z"/>
				</g>
			</g>
			<g>
				<g>
					<path style="fill:#1979BF;" d="M373.058,267.877c0.235,2.604,0.51,5.2,0.826,7.796c0.193,1.582,0.412,3.159,0.646,4.736
						c0.102,0.686,0.073,1.62,0.419,2.238c0.125,0.223,0.486,0.178,0.549-0.072c0.172-0.682-0.099-1.593-0.178-2.273
						c-0.185-1.583-0.385-3.163-0.611-4.741c-0.371-2.588-0.782-5.166-1.233-7.741C373.435,267.586,373.036,267.638,373.058,267.877
						L373.058,267.877z"/>
				</g>
			</g>
			<g>
				<path style="fill:#57C6F2;" d="M392.214,183.632c-2.75-2.875-3.556-3.115-7.495-3.673c-3.062-0.434-10.341,0.577-13.402,0.143
					c-0.73-0.104-1.473-0.207-2.202-0.093c-1.057,0.166-1.987,0.771-2.879,1.362c-2.556,1.692-5.112,3.385-7.668,5.077
					c-2.731,1.808-2.479,5.741-2.848,8.711c-0.434,3.494-0.757,7.001-1.01,10.512c-0.499,6.911-0.728,13.841-0.783,20.769
					c-0.053,6.631,0.38,13.198,0.839,19.809c0.031,0.45,0.062,0.907-0.027,1.349c-0.173,0.854-0.773,1.563-1.021,2.398
					c-1.113,3.755,3.655,5.889,6.316,7.053c3.594,1.571,7.649,2.102,11.519,1.436c0.637-0.109,1.272-0.25,1.917-0.266
					c0.796-0.019,1.583,0.152,2.37,0.27c7.61,1.144,15.108-2.613,22.8-2.862c1.569-0.051,3.221,0.027,4.612-0.7
					c1.391-0.727,2.31-2.642,1.382-3.908c-0.238-0.325-0.574-0.576-0.772-0.927c-0.275-0.486-0.246-1.08-0.209-1.637
					c0.257-3.856,0.515-7.712,0.772-11.568c0.476-7.132,0.952-14.275,0.874-21.427c-0.039-3.614-0.219-7.228-0.613-10.822
					c-0.358-3.26-0.147-6.676-0.23-9.982c-0.077-3.054-2.108-4.313-4.229-6.441"/>
			</g>
			<g>
				<path style="fill:#F9C4D1;" d="M405.526,188.998c0,0,10.727,15.626,17.874,26.484c8.613-6.046,16.111-9.574,16.111-9.574
					l6.66,0.314c-8.447,10.409-17.266,21.909-25.893,24.64c-3.328,0-18.713-14.018-27.292-23.608"/>
			</g>
			<g>
				<path style="fill:#57C6F2;" d="M389.607,206.222c3.378,1.031,7.845,8.073,13.92,13.328c8-0.705,12.93-10.078,14.339-13.419
					c-1.898-3.197-11.048-17.632-15.669-20.79c-6.554-4.48-9.777-4.776-16.716-6.236"/>
			</g>
			<g>
				<path style="fill:#57C6F2;" d="M374.239,179.105c-3.432,0.307-16.901,3.215-19.206,5.275c-4.293,3.837-8.214,9.967-12.129,20.45
					c0,0,4.344,8.95,14.118,10.652c1.602-1.783,3.74-7.203,7.327-12.897"/>
			</g>
			<g>
				<path style="fill:#F4B5C7;" d="M385.192,165.095c0.995,5.391,1.577,8.945,2.166,14.397c0.17,1.591-3.639,4.798-4.759,5.221
					c-4.263,1.611-9.837,1.368-12.576-2.837c-1.099-1.687-0.064-3.604,0.381-5.467c0.629-2.632,1.241-5.268,1.876-7.898"/>
			</g>
			<g>
				<g>
					<path style="fill:#1B227A;" d="M367.5,149.87c-2.026,0.683-3.786,2.295-4.114,4.436c-0.15,0.98-0.105,1.977-0.074,2.968
						c0.009,0.276,0.015,0.558-0.067,0.822c-0.105,0.338-0.345,0.615-0.522,0.922c-0.454,0.789-0.471,1.746-0.464,2.656
						c0.008,1.059,0.036,2.138,0.379,3.14c0.343,1.002,1.054,1.932,2.053,2.281c0.404,0.141,0.859,0.181,1.257,0.025
						c0.317-0.124,0.576-0.361,0.811-0.607c0.761-0.797,1.354-1.754,1.73-2.79"/>
				</g>
				<g>
					<path style="fill:#F9C4D1;" d="M364.641,165.265c0.345-3.191-0.09-6.424,0.5-9.605c0.714-3.85,2.796-6.943,6.621-8.15
						c4.094-1.292,8.912-0.484,12.446,1.919c5.715,3.885,6.376,12.262,2.786,18.167c-3.59,5.905-5.968,8.064-7.866,8.803
						c-3.394,1.321-11.99,0.308-13.347-1.61C364.531,173.022,364.457,166.971,364.641,165.265z"/>
				</g>
				<g>
					<path style="fill:#1B227A;" d="M362.413,142.707c0.047-0.162,0.105-0.332,0.237-0.436c0.147-0.115,0.349-0.121,0.535-0.121
						c4.348-0.01,8.702,0.21,13.042-0.061c1.989-0.124,3.988-0.351,5.969-0.131c0.721,0.08,1.456,0.226,2.069,0.616
						c1.047,0.666,1.551,1.905,1.993,3.064c2.117-0.333,4.386,0.794,5.402,2.681c0.864,1.606,0.829,3.523,0.853,5.346
						c0.051,3.862,0.462,7.758-0.183,11.566c-0.166,0.98-0.419,1.986-1.047,2.757c-1.16,1.424-3.214,1.65-5.047,1.756
						c-0.205,0.012-0.435,0.016-0.587-0.122c-0.141-0.127-0.17-0.333-0.189-0.521c-0.12-1.19-0.171-2.388-0.153-3.584
						c0.009-0.613,0.034-1.247-0.194-1.816c-0.228-0.569-0.787-1.059-1.396-0.988c-0.332,0.038-0.681,0.232-0.979,0.08
						c-0.199-0.102-0.299-0.326-0.379-0.534c-1.413-2.995-0.366-7.183-0.366-7.183c-1.768,0.361-3.561,0.725-5.363,0.623
						c-1.819-0.102-3.64-0.392-5.443-0.643c-2.22-0.309-4.67-0.351-6.596-1.649c-1.895-1.278-2.34-3.447-2.51-5.585
						C361.945,146.115,361.933,144.367,362.413,142.707z"/>
				</g>
				<g>
					<g>
						<path style="fill:#8E5169;" d="M367.46,159.235c0.5-0.532,1.119-0.56,1.43,0.734c0.195,0.814,0.038,2.321-1.061,2.328
							C366.148,162.307,366.645,160.102,367.46,159.235z"/>
						<path style="fill:#FFFFFF;" d="M367.233,159.915c0.222-0.236,0.496-0.248,0.634,0.325c0.087,0.361,0.017,1.029-0.471,1.032
							C366.651,161.277,366.872,160.3,367.233,159.915z"/>
					</g>
					<g>
						<path style="fill:#8E5169;" d="M377.513,160.874c0.554-0.558,1.246-0.582,1.606,0.791c0.227,0.864,0.065,2.458-1.164,2.455
							C376.076,164.114,376.61,161.784,377.513,160.874z"/>
						<path style="fill:#FFFFFF;" d="M377.266,161.592c0.245-0.247,0.552-0.258,0.712,0.351c0.1,0.383,0.029,1.09-0.516,1.088
							C376.629,163.029,376.866,161.995,377.266,161.592z"/>
					</g>
					<g>
						<g>
							<path style="fill:#8E5169;" d="M381.409,157.367c-1.045-0.177-2.65-0.341-3.539,0.357c-0.203,0.159-0.021,0.467,0.197,0.475
								c0.496,0.018,0.98-0.203,1.47-0.281c0.598-0.095,1.2-0.094,1.802-0.036C381.631,157.909,381.701,157.416,381.409,157.367
								L381.409,157.367z"/>
						</g>
					</g>
					<g>
						<g>
							<path style="fill:#8E5169;" d="M367.097,155.888c1.036-0.067,1.486,0.957,2.183,1.512c0.198,0.158,0.467,0.013,0.42-0.244
								c-0.214-1.176-1.417-2.311-2.681-1.847C366.727,155.416,366.742,155.911,367.097,155.888L367.097,155.888z"/>
						</g>
					</g>
					<g>
						<path style="fill:#E588A7;" d="M370.606,163.15c-0.145,0.57-0.325,1.112-0.545,1.631c-0.207,0.499-0.403,1.068-0.315,1.409
							c0.044,0.147,0.094,0.196,0.368,0.273c0.261,0.085,0.53,0.142,0.797,0.214c0.539,0.124,1.087,0.244,1.661,0.353
							c-0.562,0.162-1.153,0.226-1.74,0.187c-0.295-0.011-0.585-0.059-0.876-0.111c-0.125-0.021-0.345-0.082-0.517-0.201
							c-0.18-0.128-0.313-0.331-0.368-0.531c-0.136-0.797,0.209-1.339,0.501-1.832C369.88,164.053,370.225,163.587,370.606,163.15z"
							/>
					</g>
				</g>
			</g>
			<g>
				<path style="fill:#F9C4D1;" d="M382.678,165.917c0.294-0.27,0.595-0.544,0.96-0.707c0.365-0.162,0.811-0.195,1.151,0.016
					c0.275,0.171,0.44,0.472,0.563,0.772c0.367,0.897,0.455,1.927,0.129,2.839c-0.326,0.912-1.095,1.682-2.039,1.9
					c-0.944,0.218-2.029-0.183-2.516-1.021"/>
			</g>
			<g>
				<path style="fill:#FFFFFF;" d="M386.837,175.364c-3.395,2.834-9.146,8.055-13.392,9.291c2.303,1.054,4.016,4.803,4.112,7.002
					c4.09-2.409,8.398-7.899,10.889-11.939"/>
			</g>
			<g>
				<path style="fill:#FFFFFF;" d="M370.137,177.365c0.282,2.333,1.743,5.536,3.308,7.29c-3.008,0.076-4.634,4.277-4.302,4.725
					c0,0-1.501-5.222-0.55-9.997"/>
			</g>
			<g>
				<g>
					<path style="fill:#3BACEA;" d="M373.391,185.341c-0.947,13.655-2.012,27.305-2.654,40.979
						c-0.297,6.333-0.537,12.673-0.581,19.013c-0.027,3.941-0.431,9.375,2.164,12.663c0.143,0.181,0.439-0.053,0.317-0.245
						c-2.497-3.951-1.885-9.884-1.836-14.373c0.069-6.402,0.306-12.802,0.604-19.197c0.602-12.953,1.396-25.895,2.139-38.84
						C373.549,185.242,373.397,185.243,373.391,185.341L373.391,185.341z"/>
				</g>
			</g>
			<g>
				<g>
					<path style="fill:#3BACEA;" d="M374.831,188.981c0.984,0,0.986-1.529,0-1.529C373.848,187.452,373.846,188.981,374.831,188.981
						L374.831,188.981z"/>
				</g>
			</g>
			<g>
				<g>
					<path style="fill:#3BACEA;" d="M374.239,201.495c0.984,0,0.986-1.529,0-1.529C373.255,199.966,373.254,201.495,374.239,201.495
						L374.239,201.495z"/>
				</g>
			</g>
			<g>
				<g>
					<path style="fill:#3BACEA;" d="M373.647,214.008c0.984,0,0.985-1.529,0-1.529C372.663,212.479,372.662,214.008,373.647,214.008
						L373.647,214.008z"/>
				</g>
			</g>
			<g>
				<g>
					<path style="fill:#3BACEA;" d="M373.055,226.522c0.984,0,0.986-1.529,0-1.529C372.071,224.993,372.069,226.522,373.055,226.522
						L373.055,226.522z"/>
				</g>
			</g>
			<g>
				<g>
					<path style="fill:#3BACEA;" d="M372.463,239.036c0.984,0,0.985-1.529,0-1.529C371.479,237.507,371.477,239.036,372.463,239.036
						L372.463,239.036z"/>
				</g>
			</g>
			<g>
				<g>
					<path style="fill:#3BACEA;" d="M372.463,251.549c0.984,0,0.985-1.529,0-1.529C371.479,250.02,371.477,251.549,372.463,251.549
						L372.463,251.549z"/>
				</g>
			</g>
			<g>
				<g>
					<path style="fill:#3BACEA;" d="M392.05,205.498c1.318,1.8,2.67,3.572,4.07,5.309c2.238,2.777,4.555,6.166,7.512,8.216
						c0.205,0.142,0.374-0.152,0.245-0.317c-3.624-4.625-7.87-8.809-11.535-13.432C392.212,205.109,391.925,205.327,392.05,205.498
						L392.05,205.498z"/>
				</g>
			</g>
			<g>
				<g>
					<path style="fill:#3BACEA;" d="M356.927,196.03c-1.84,4.833-2.553,10.314-2.555,15.47c0,0.244,0.347,0.233,0.371,0
						c0.553-5.202,1.529-10.265,2.374-15.418C357.137,195.957,356.973,195.911,356.927,196.03L356.927,196.03z"/>
				</g>
			</g>
			<g>
				<path style="fill:#E588A7;" d="M375.37,169.964c-0.326,2.13-3.175,2.68-4.644,2.4c-1.001-0.191-2.965-1.416-2.965-3.236
					L375.37,169.964z"/>
			</g>
			<g>
				<g>
					<path style="fill:#E588A7;" d="M423.091,215.475c-1.238,0.721-2.528,1.336-3.698,2.171c-0.577,0.411-1.666,1.07-1.505,1.91
						c0.033,0.174,0.268,0.215,0.383,0.101c0.733-0.723,1.366-1.39,2.228-1.995c0.925-0.649,1.834-1.327,2.665-2.093
						C423.215,215.523,423.15,215.441,423.091,215.475L423.091,215.475z"/>
				</g>
			</g>
			<g>
				<path style="fill:#F9C4D1;" d="M443.909,209.018c0.967-1.225,1.945-2.472,3.073-3.53c0.763-0.717,1.895-1.494,2.838-1.971
					c1.203-0.608,2.226-0.977,3.452-1.629c1.28-0.681,1.755-1.52,2.187-2.938c0.508-1.665,0.643-2.845,0.327-3.373
					c-1.676-0.793-4.85,2.517-5.147,2.646c-0.4,0.174-2.501,0.986-3.819,0.644c-0.158-0.448,2.004-0.693,2.32-1.951
					c0.085-0.34-0.95-0.177-1.295-0.115c-2.22,0.401-4.722,0.962-5.473,3.46c-0.206,0.686-0.206,1.417-0.372,2.113
					c-0.517,2.175-3.145,3.532-4.99,4.795"/>
			</g>
			<g>
				<g>
					<path style="fill:#E588A7;" d="M337.946,214.914c0.629,0.641,1.258,1.32,1.765,2.063c0.476,0.698,0.806,1.481,1.277,2.177
						c0.121,0.179,0.397,0.069,0.349-0.147c-0.385-1.746-1.797-3.318-3.199-4.342C337.99,214.557,337.823,214.789,337.946,214.914
						L337.946,214.914z"/>
				</g>
			</g>
			<g>
				<path style="fill:#F9C4D1;" d="M316.788,205.418c-0.967-1.225-2.798-4.313-3.925-5.371c-0.763-0.716-3.677-1.673-4.621-2.15
					c-1.203-0.608-2.226-0.977-3.453-1.629c-1.28-0.681-1.754-1.52-2.187-2.938c-0.508-1.665-0.643-2.845-0.326-3.373
					c1.676-0.793,4.85,2.517,5.147,2.647c0.399,0.174,2.5,0.986,3.819,0.644c0.158-0.448-2.004-0.694-2.32-1.951
					c-0.085-0.34,0.95-0.177,1.295-0.115c2.22,0.401,4.722,0.962,5.473,3.46c0.206,0.686,0.602,1.561,0.768,2.258
					c0.517,2.175,3.117,3.781,4.962,5.044"/>
			</g>
			<g>
				<path style="fill:#3BACEA;" d="M366.855,200.73c-2.656,0.077-5.545-0.199-8.163-0.65c0.023,0.428-0.041,0.861-0.189,1.263
					c2.779,0.267,5.564,0.474,8.352,0.622"/>
			</g>
		</g>
		<g>
			<g>
				
					<rect x="432.201" y="345.567" transform="matrix(6.123234e-17 -1 1 6.123234e-17 67.0049 807.0164)" style="fill:#8BC0ED;" width="9.62" height="48.877"/>
				
					<rect x="430.968" y="354.49" transform="matrix(6.123234e-17 -1 1 6.123234e-17 63.2837 803.2951)" style="fill:#DEEAFA;" width="4.643" height="31.031"/>
			</g>
			<g>
				
					<rect x="432.201" y="326.326" transform="matrix(6.123234e-17 -1 1 6.123234e-17 86.2455 787.7758)" style="fill:#8BC0ED;" width="9.62" height="48.877"/>
				
					<rect x="430.968" y="335.25" transform="matrix(6.123234e-17 -1 1 6.123234e-17 82.5242 784.0546)" style="fill:#DEEAFA;" width="4.643" height="31.031"/>
			</g>
			<g>
				
					<rect x="432.201" y="335.947" transform="matrix(6.123234e-17 -1 1 6.123234e-17 76.6252 797.3961)" style="fill:#FE7D90;" width="9.62" height="48.877"/>
				
					<rect x="430.968" y="344.87" transform="matrix(6.123234e-17 -1 1 6.123234e-17 72.904 793.6748)" style="fill:#DEEAFA;" width="4.643" height="31.031"/>
			</g>
		</g>
	</g>
</g>
<g id="DESIGNED_BY_FREEPIK">
	<g>
		<g id="XMLID_319_">
			<g id="XMLID_338_">
				<path id="XMLID_346_" style="fill:#A5B7C6;" d="M260.104,471.342c-0.432,0.443-0.803,0.931-1.108,1.453l-0.465-0.241
					c-0.067-0.298-0.349-0.503-0.659-0.466c-0.331,0.039-0.568,0.339-0.529,0.67c0.039,0.331,0.339,0.568,0.67,0.529
					c0.066-0.008,0.127-0.026,0.184-0.052l0.451,0.234c-0.251,0.554-0.433,1.139-0.539,1.744l0.747,0.132
					c0.23-1.306,0.85-2.507,1.792-3.473L260.104,471.342z"/>
				<path id="XMLID_345_" style="fill:#A5B7C6;" d="M265.592,469.04c-0.171,0-0.341,0.006-0.51,0.017l-0.074-0.626
					c0.188-0.149,0.296-0.389,0.266-0.645c-0.046-0.393-0.402-0.674-0.795-0.628c-0.393,0.046-0.674,0.402-0.628,0.795
					c0.03,0.254,0.189,0.461,0.404,0.564l0.074,0.624c-0.714,0.116-1.403,0.332-2.06,0.646l0.327,0.684
					c0.934-0.447,1.942-0.673,2.995-0.673c0.496,0,0.993,0.053,1.475,0.158l0.161-0.741
					C266.692,469.099,266.142,469.04,265.592,469.04z"/>
				<path id="XMLID_344_" style="fill:#A5B7C6;" d="M272.194,471.588c0.331-0.04,0.566-0.341,0.526-0.672
					c-0.04-0.331-0.341-0.566-0.672-0.526c-0.309,0.038-0.535,0.304-0.53,0.609l-0.416,0.363c-0.418-0.43-0.889-0.813-1.408-1.139
					l-0.404,0.641c1.134,0.715,2.021,1.726,2.563,2.925l0.69-0.313c-0.251-0.554-0.567-1.072-0.942-1.545l0.402-0.351
					C272.065,471.592,272.129,471.596,272.194,471.588z"/>
				<path id="XMLID_343_" style="fill:#A5B7C6;" d="M265.044,479.249c-0.386,0.023-0.775,0.035-1.157,0.035
					c-0.88,0-1.733-0.061-2.478-0.179c-0.39-0.062-0.846-0.155-1.27-0.292c1.046,1.861,3.069,3.125,5.388,3.125
					c2.855,0,5.262-1.916,5.95-4.504c-0.682,0.449-1.505,0.825-2.459,1.123C267.839,478.924,266.463,479.164,265.044,479.249z"/>
				<path id="XMLID_339_" style="fill:#A5B7C6;" d="M265.592,470.556c-3.352,0-6.08,2.666-6.08,5.944
					c0,0.426,0.046,0.849,0.137,1.261c0.673,0.483,2.706,0.89,5.348,0.731c2.879-0.173,5.297-0.957,6.672-2.159
					c-0.006-0.195-0.021-0.39-0.045-0.582C271.244,472.79,268.65,470.556,265.592,470.556z M263.432,477.071
					c-1.02,0-1.85-0.83-1.85-1.85c0-1.02,0.83-1.85,1.85-1.85c1.02,0,1.85,0.83,1.85,1.85
					C265.282,476.242,264.452,477.071,263.432,477.071z M268.17,476.163c-0.75,0-1.36-0.61-1.36-1.36c0-0.75,0.61-1.36,1.36-1.36
					c0.75,0,1.361,0.61,1.361,1.36C269.53,475.553,268.92,476.163,268.17,476.163z"/>
			</g>
			<path id="XMLID_336_" style="fill:#A5B7C6;" d="M281.595,472.424c-0.295-0.116-0.805-0.309-1.382-0.237
				c-0.551,0.069-0.844,0.34-0.844,1.007v0.866h2.228v1.717h-2.228v5.455h-1.932v-5.455h-1.34v-1.717h1.34v-0.888
				c0-1.68,0.896-2.783,2.568-2.783c0.643,0,1.157,0.122,1.59,0.308L281.595,472.424z"/>
			<path id="XMLID_334_" style="fill:#A5B7C6;" d="M286.298,475.756c-0.177-0.03-0.358-0.046-0.526-0.046
				c-0.896,0-1.51,0.548-1.51,1.613v3.908h-1.932v-7.172h1.873v0.785c0.451-0.673,1.14-0.977,2.021-0.977
				c0.414,0,0.848,0.128,1.094,0.337L286.298,475.756z"/>
			<path id="XMLID_331_" style="fill:#A5B7C6;" d="M293.965,477.634c0,0.222-0.015,0.489-0.037,0.651h-5.085
				c0.207,1.036,0.933,1.488,1.843,1.488c0.622,0,1.295-0.252,1.813-0.688l1.133,1.243c-0.814,0.748-1.85,1.088-3.057,1.088
				c-2.198,0-3.723-1.495-3.723-3.752c0-2.258,1.48-3.797,3.627-3.797C292.544,473.866,293.958,475.399,293.965,477.634z
				 M288.851,476.968h3.175c-0.177-0.918-0.733-1.436-1.562-1.436C289.554,475.532,289.021,476.08,288.851,476.968z"/>
			<path id="XMLID_328_" style="fill:#A5B7C6;" d="M301.618,477.634c0,0.222-0.015,0.489-0.037,0.651h-5.085
				c0.207,1.036,0.933,1.488,1.843,1.488c0.622,0,1.295-0.252,1.814-0.688l1.132,1.243c-0.814,0.748-1.85,1.088-3.057,1.088
				c-2.198,0-3.723-1.495-3.723-3.752c0-2.258,1.48-3.797,3.627-3.797C300.197,473.866,301.611,475.399,301.618,477.634z
				 M296.504,476.968h3.175c-0.178-0.918-0.733-1.436-1.562-1.436C297.207,475.532,296.674,476.08,296.504,476.968z"/>
			<path id="XMLID_325_" style="fill:#A5B7C6;" d="M309.964,477.641c0,2.154-1.495,3.775-3.471,3.775
				c-0.962,0-1.643-0.377-2.109-0.933v3.708h-1.924v-10.133h1.887v0.792c0.466-0.585,1.155-0.984,2.139-0.984
				C308.469,473.866,309.964,475.487,309.964,477.641z M304.287,477.641c0,1.132,0.748,1.976,1.843,1.976
				c1.14,0,1.85-0.881,1.85-1.976c0-1.095-0.71-1.976-1.85-1.976C305.035,475.665,304.287,476.509,304.287,477.641z"/>
			<path id="XMLID_322_" style="fill:#A5B7C6;" d="M313.068,471.713c0,0.696-0.54,1.229-1.236,1.229
				c-0.696,0-1.229-0.533-1.229-1.229c0-0.696,0.533-1.243,1.229-1.243C312.527,470.469,313.068,471.017,313.068,471.713z
				 M312.809,481.231h-1.932v-7.172h1.932V481.231z"/>
			<path id="XMLID_320_" style="fill:#A5B7C6;" d="M316.032,476.612l2.701-2.554h2.368l-3.479,3.375l3.501,3.797h-2.376
				l-2.716-2.901v2.901H314.1v-10.658h1.932V476.612z"/>
		</g>
		<g>
			<path style="fill:#A5B7C6;" d="M184.412,481.166v-1.055c-0.527,0.718-1.391,1.23-2.387,1.23c-1.846,0-3.149-1.406-3.149-3.706
				c0-2.256,1.289-3.721,3.149-3.721c0.952,0,1.816,0.469,2.387,1.245v-3.765h1.099v9.77H184.412z M184.412,479.247v-3.208
				c-0.395-0.615-1.245-1.143-2.124-1.143c-1.421,0-2.27,1.172-2.27,2.739c0,1.567,0.85,2.724,2.27,2.724
				C183.168,480.36,184.017,479.862,184.412,479.247z"/>
			<path style="fill:#A5B7C6;" d="M186.932,477.621c0-2.051,1.465-3.706,3.486-3.706c2.139,0,3.398,1.67,3.398,3.794v0.279h-5.727
				c0.088,1.333,1.025,2.446,2.549,2.446c0.805,0,1.626-0.322,2.182-0.893l0.527,0.718c-0.703,0.703-1.655,1.084-2.812,1.084
				C188.44,481.342,186.932,479.833,186.932,477.621z M190.403,474.824c-1.509,0-2.256,1.274-2.314,2.358h4.643
				C192.718,476.127,192.015,474.824,190.403,474.824z"/>
			<path style="fill:#A5B7C6;" d="M194.607,480.228l0.571-0.791c0.469,0.542,1.362,1.011,2.329,1.011c1.084,0,1.67-0.513,1.67-1.216
				c0-1.714-4.38-0.659-4.38-3.281c0-1.098,0.952-2.036,2.636-2.036c1.201,0,2.051,0.454,2.622,1.025l-0.513,0.762
				c-0.424-0.513-1.201-0.894-2.109-0.894c-0.967,0-1.567,0.483-1.567,1.113c0,1.553,4.38,0.527,4.38,3.281
				c0,1.187-0.952,2.139-2.783,2.139C196.306,481.342,195.325,480.99,194.607,480.228z"/>
			<path style="fill:#A5B7C6;" d="M201.477,472.348c0-0.41,0.337-0.747,0.732-0.747c0.41,0,0.747,0.337,0.747,0.747
				c0,0.41-0.337,0.732-0.747,0.732C201.814,473.08,201.477,472.758,201.477,472.348z M201.667,481.166v-7.075h1.099v7.075H201.667z
				"/>
			<path style="fill:#A5B7C6;" d="M204.582,482.982l0.556-0.82c0.586,0.703,1.289,0.967,2.3,0.967c1.172,0,2.27-0.571,2.27-2.124
				v-1.011c-0.513,0.718-1.377,1.26-2.373,1.26c-1.845,0-3.149-1.377-3.149-3.662c0-2.27,1.289-3.676,3.149-3.676
				c0.952,0,1.802,0.469,2.373,1.245v-1.069h1.098v6.87c0,2.344-1.641,3.076-3.369,3.076
				C206.237,484.037,205.417,483.802,204.582,482.982z M209.709,479.13v-3.091c-0.381-0.615-1.23-1.143-2.109-1.143
				c-1.421,0-2.27,1.128-2.27,2.695c0,1.553,0.849,2.695,2.27,2.695C208.478,480.287,209.328,479.745,209.709,479.13z"/>
			<path style="fill:#A5B7C6;" d="M217.413,481.166v-4.629c0-1.245-0.63-1.641-1.582-1.641c-0.865,0-1.685,0.527-2.095,1.099v5.17
				h-1.099v-7.075h1.099v1.025c0.498-0.586,1.464-1.201,2.519-1.201c1.48,0,2.256,0.747,2.256,2.285v4.966H217.413z"/>
			<path style="fill:#A5B7C6;" d="M219.932,477.621c0-2.051,1.465-3.706,3.486-3.706c2.139,0,3.398,1.67,3.398,3.794v0.279h-5.727
				c0.088,1.333,1.025,2.446,2.549,2.446c0.806,0,1.626-0.322,2.183-0.893l0.527,0.718c-0.703,0.703-1.655,1.084-2.812,1.084
				C221.441,481.342,219.932,479.833,219.932,477.621z M223.404,474.824c-1.509,0-2.256,1.274-2.314,2.358h4.643
				C225.718,476.127,225.015,474.824,223.404,474.824z"/>
			<path style="fill:#A5B7C6;" d="M233.35,481.166v-1.055c-0.527,0.718-1.392,1.23-2.388,1.23c-1.846,0-3.149-1.406-3.149-3.706
				c0-2.256,1.289-3.721,3.149-3.721c0.952,0,1.817,0.469,2.388,1.245v-3.765h1.098v9.77H233.35z M233.35,479.247v-3.208
				c-0.396-0.615-1.245-1.143-2.124-1.143c-1.421,0-2.27,1.172-2.27,2.739c0,1.567,0.849,2.724,2.27,2.724
				C232.105,480.36,232.954,479.862,233.35,479.247z"/>
			<path style="fill:#A5B7C6;" d="M239.692,481.166v-9.77h1.098v3.765c0.572-0.776,1.421-1.245,2.388-1.245
				c1.845,0,3.149,1.465,3.149,3.721c0,2.299-1.304,3.706-3.149,3.706c-0.996,0-1.86-0.513-2.388-1.23v1.055H239.692z M242.9,480.36
				c1.436,0,2.285-1.157,2.285-2.724c0-1.567-0.85-2.739-2.285-2.739c-0.864,0-1.728,0.527-2.109,1.143v3.208
				C241.171,479.862,242.036,480.36,242.9,480.36z"/>
			<path style="fill:#A5B7C6;" d="M247.528,482.938c0.161,0.073,0.425,0.117,0.601,0.117c0.483,0,0.805-0.161,1.055-0.747
				l0.469-1.069l-2.959-7.148h1.187l2.358,5.801l2.344-5.801h1.201l-3.545,8.51c-0.425,1.025-1.143,1.421-2.08,1.435
				c-0.234,0-0.601-0.044-0.805-0.103L247.528,482.938z"/>
		</g>
	</g>
</g>
</svg>
