<?xml version="1.0" encoding="utf-8"?>
<!-- Generator: Adobe Illustrator 27.5.0, SVG Export Plug-In . SVG Version: 6.00 Build 0)  -->
<svg version="1.1" xmlns="http://www.w3.org/2000/svg" xmlns:xlink="http://www.w3.org/1999/xlink" x="0px" y="0px"
	 viewBox="0 0 750 500" style="enable-background:new 0 0 750 500;" xml:space="preserve">
<g id="BACKGROUND">
	<rect style="fill:#FFFFFF;" width="750" height="500"/>
	<path style="fill:#FFFFFF;" d="M599.005,267.379"/>
</g>
<g id="OBJECTS">
	<g>
		<g>
			<path style="fill:#FBB539;" d="M224.073,136.426l-0.018,0.021c-2.14,2.5-3.033,5.835-2.428,9.069l0.002,0.012
				c0.986,5.274-2.022,10.478-7.084,12.257l0,0c-3.113,1.094-5.561,3.541-6.654,6.654v0c-1.778,5.062-6.983,8.07-12.257,7.084
				l-0.011-0.002c-3.235-0.605-6.57,0.288-9.07,2.428l-0.02,0.017c-4.07,3.484-10.072,3.484-14.142,0l-0.021-0.018
				c-2.5-2.14-5.835-3.033-9.069-2.428l-0.012,0.002c-5.274,0.986-10.478-2.022-12.257-7.084l0,0
				c-1.094-3.113-3.541-5.561-6.654-6.654h0c-5.062-1.778-8.07-6.983-7.084-12.257l0.002-0.011c0.605-3.235-0.288-6.57-2.428-9.069
				l-0.017-0.02c-3.484-4.07-3.484-10.072,0-14.142l0.018-0.021c2.14-2.5,3.033-5.834,2.428-9.069l-0.002-0.012
				c-0.986-5.274,2.022-10.478,7.084-12.257l0,0c3.113-1.094,5.561-3.541,6.654-6.654v0c1.778-5.062,6.983-8.07,12.257-7.084
				l0.011,0.002c3.235,0.605,6.57-0.288,9.07-2.428l0.02-0.017c4.07-3.484,10.072-3.484,14.142,0l0.021,0.018
				c2.5,2.14,5.835,3.033,9.069,2.428l0.012-0.002c5.274-0.986,10.478,2.022,12.257,7.084l0,0c1.094,3.113,3.541,5.561,6.654,6.654
				h0c5.062,1.778,8.07,6.983,7.084,12.257l-0.002,0.011c-0.605,3.235,0.288,6.57,2.428,9.07l0.017,0.02
				C227.557,126.354,227.557,132.356,224.073,136.426z"/>
			<circle style="fill:#FB9739;" cx="179.463" cy="129.355" r="39.484"/>
		</g>
		<path style="fill:#D7F0F4;" d="M166.707,432.896c0,0-4.92-92.968,109.91-58.867c137.112,40.718,189.465-80.329,128.929-209.258
			s81.392-125.979,154.164-74.853c96.16,67.557,124.079,204.679,51.801,342.978H166.707z"/>
		<path style="fill:#FFFFFF;" d="M420.077,432.896c0,0,1.696-46.483,69.983-40.501c75.409,6.606,41.962-53.193,23.068-60.606
			c-18.894-7.414,17.8-24.445,56.04,4.141c38.239,28.586,32.266,79.957,22.286,96.966H420.077z"/>
	</g>
	<g>
		<g>
			<path style="fill:#00A79D;" d="M563.56,225.249c0,0,7.999-59.797,43.351-61.428S573.87,200.873,563.56,225.249z"/>
			<g>
				<path style="fill:#FFFFFF;" d="M608.843,168.681c-2.181,1.429-4.239,3.027-6.213,4.718c-2.004,1.655-3.911,3.424-5.784,5.223
					c-3.729,3.618-7.259,7.438-10.59,11.425c-3.403,3.93-6.509,8.104-9.581,12.301c-1.544,2.094-2.974,4.269-4.473,6.399
					l-4.317,6.518c1.274-2.274,2.588-4.529,3.905-6.783c1.418-2.189,2.782-4.419,4.255-6.575c1.485-2.148,2.968-4.301,4.578-6.36
					l2.385-3.111l2.485-3.033c3.414-3.957,6.96-7.816,10.829-11.339C600.204,174.575,604.273,171.222,608.843,168.681z"/>
			</g>
		</g>
		<g>
			<path style="fill:#00A79D;" d="M568.538,203.377c0,0-13.182-58.872,19.422-72.632
				C620.564,116.984,569.778,176.939,568.538,203.377z"/>
			<g>
				<path style="fill:#FFFFFF;" d="M591.454,134.636c-1.552,2.095-2.93,4.306-4.197,6.577c-1.308,2.246-2.485,4.566-3.62,6.901
					c-2.247,4.685-4.238,9.49-5.983,14.383c-1.833,4.864-3.303,9.856-4.734,14.856c-0.724,2.499-1.314,5.034-1.983,7.551
					l-1.796,7.609c0.409-2.575,0.861-5.144,1.317-7.715c0.573-2.545,1.081-5.108,1.717-7.641c0.65-2.529,1.296-5.062,2.095-7.551
					l1.161-3.744l1.283-3.706c1.835-4.894,3.826-9.741,6.237-14.385C585.388,143.154,588.045,138.601,591.454,134.636z"/>
			</g>
		</g>
		<g>
			<path style="fill:#00A79D;" d="M247.243,174.292c0,0-7.999-59.797-43.351-61.428
				C168.541,111.234,236.933,149.917,247.243,174.292z"/>
			<g>
				<path style="fill:#FFFFFF;" d="M201.96,117.724c4.57,2.541,8.638,5.894,12.522,9.383c3.869,3.523,7.414,7.382,10.829,11.339
					l2.485,3.033l2.385,3.111c1.611,2.058,3.093,4.211,4.578,6.36c1.473,2.156,2.837,4.386,4.255,6.575
					c1.317,2.254,2.631,4.509,3.905,6.783l-4.317-6.518c-1.498-2.13-2.929-4.305-4.473-6.399c-3.072-4.197-6.179-8.371-9.581-12.301
					c-3.331-3.987-6.861-7.807-10.59-11.425c-1.874-1.799-3.78-3.567-5.785-5.223C206.199,120.751,204.141,119.153,201.96,117.724z"
					/>
			</g>
		</g>
		<g>
			<path style="fill:#00A79D;" d="M242.265,152.42c0,0,13.182-58.872-19.422-72.632S241.025,125.983,242.265,152.42z"/>
			<g>
				<path style="fill:#FFFFFF;" d="M219.349,83.679c3.408,3.965,6.066,8.518,8.503,13.136c2.411,4.644,4.403,9.491,6.237,14.385
					l1.283,3.706l1.161,3.744c0.799,2.489,1.445,5.021,2.095,7.551c0.636,2.533,1.144,5.096,1.717,7.641
					c0.456,2.571,0.909,5.141,1.317,7.715l-1.796-7.609c-0.669-2.517-1.259-5.053-1.983-7.551c-1.431-5-2.901-9.992-4.734-14.856
					c-1.746-4.894-3.736-9.699-5.983-14.383c-1.136-2.336-2.313-4.655-3.62-6.901C222.279,87.985,220.901,85.775,219.349,83.679z"/>
			</g>
		</g>
		<g>
			<path style="fill:#00A79D;" d="M308.539,160.703c0,0,57.737-17.494,53.672-52.649C358.147,72.9,330.944,146.615,308.539,160.703z
				"/>
			<g>
				<path style="fill:#FFFFFF;" d="M357.105,106.928c-1.775,4.918-4.431,9.472-7.251,13.866c-2.857,4.385-6.096,8.503-9.454,12.509
					l-2.595,2.94l-2.688,2.853c-1.773,1.92-3.66,3.729-5.542,5.54c-1.892,1.8-3.873,3.504-5.807,5.255
					c-2.014,1.662-4.028,3.321-6.068,4.943l5.74-5.308c1.862-1.821,3.779-3.582,5.598-5.442c3.649-3.706,7.271-7.442,10.603-11.432
					c3.401-3.928,6.605-8.025,9.577-12.287c1.474-2.138,2.914-4.304,4.226-6.548C354.798,111.597,356.044,109.31,357.105,106.928z"
					/>
			</g>
		</g>
		<g>
			<g>
				<path style="fill:#00A79D;" d="M145.485,317.714c0,0-27.429-53.733,0.72-75.181S140.101,291.801,145.485,317.714z"/>
				<g>
					<path style="fill:#FFFFFF;" d="M150.558,245.432c-0.981,2.416-1.765,4.9-2.427,7.415c-0.707,2.501-1.269,5.041-1.788,7.586
						c-1.01,5.097-1.741,10.246-2.213,15.42c-0.564,5.168-0.745,10.368-0.885,15.567c-0.079,2.6-0.019,5.203-0.039,7.807
						l0.156,7.817c-0.246-2.595-0.447-5.197-0.646-7.8c-0.079-2.607-0.225-5.217-0.24-7.828c0-2.611-0.005-5.226,0.149-7.835
						l0.192-3.915l0.319-3.908c0.558-5.197,1.279-10.387,2.458-15.485C146.805,255.192,148.245,250.121,150.558,245.432z"/>
				</g>
			</g>
			<g>
				<path style="fill:#00A79D;" d="M293.753,161.97c0,0-49.397-34.635-34.567-66.767C274.017,63.071,276.863,141.594,293.753,161.97
					z"/>
				<g>
					<path style="fill:#FFFFFF;" d="M264.39,95.726c0.264,2.594,0.735,5.156,1.327,7.688c0.546,2.541,1.239,5.048,1.973,7.54
						c1.494,4.976,3.26,9.869,5.266,14.661c1.921,4.83,4.197,9.51,6.507,14.169c1.148,2.335,2.42,4.606,3.621,6.917l3.798,6.834
						c-1.432-2.178-2.829-4.382-4.223-6.59c-1.29-2.267-2.642-4.504-3.877-6.805c-1.223-2.307-2.452-4.615-3.537-6.992l-1.664-3.55
						l-1.548-3.603c-1.941-4.853-3.733-9.777-5.079-14.834C265.644,106.108,264.541,100.952,264.39,95.726z"/>
				</g>
			</g>
			<g>
				<path style="fill:#00A79D;" d="M286.882,160.438c0,0,52.526-29.675,40.887-63.095S305.671,141.799,286.882,160.438z"/>
				<g>
					<path style="fill:#FFFFFF;" d="M322.538,97.359c-0.658,5.187-2.256,10.211-4.05,15.114c-1.831,4.902-4.093,9.629-6.495,14.27
						l-1.891,3.436l-2.001,3.371c-1.311,2.261-2.758,4.438-4.199,6.616c-1.453,2.17-3.015,4.265-4.52,6.396
						c-1.602,2.061-3.206,4.12-4.843,6.149l4.444-6.433c1.42-2.183,2.906-4.32,4.275-6.533c2.752-4.413,5.471-8.85,7.852-13.471
						c2.462-4.575,4.694-9.273,6.664-14.081c0.972-2.408,1.905-4.836,2.695-7.312C321.306,102.419,322.024,99.915,322.538,97.359z"
						/>
				</g>
			</g>
			<g>
				<path style="fill:#00A79D;" d="M129.467,393.651c0,0,53.26-28.337,42.469-62.041
					C161.144,297.907,148.721,375.493,129.467,393.651z"/>
				<g>
					<path style="fill:#FFFFFF;" d="M166.707,331.494c-0.789,5.169-2.514,10.151-4.431,15.007
						c-1.954,4.854-4.335,9.522-6.854,14.102l-1.977,3.387l-2.085,3.32c-1.368,2.227-2.869,4.367-4.365,6.508
						c-1.508,2.132-3.122,4.187-4.68,6.28c-1.654,2.02-3.309,4.037-4.997,6.024l4.605-6.318c1.475-2.147,3.014-4.246,4.439-6.422
						c2.863-4.342,5.693-8.709,8.191-13.268c2.577-4.512,4.927-9.151,7.018-13.908c1.033-2.383,2.026-4.787,2.879-7.242
						C165.347,336.522,166.128,334.036,166.707,331.494z"/>
				</g>
			</g>
			<path style="fill:none;stroke:#00A79D;stroke-miterlimit:10;" d="M185.859,439.639c-37.901,0-77.186-45.803-49.649-106.215
				c32.735-71.818,199.275-153.626,154.774-246.067"/>
			<g>
				<path style="fill:#00A79D;" d="M127.018,370.645c0,0-35.144-49.036-10.513-74.445
					C141.137,270.789,117.826,345.826,127.018,370.645z"/>
				<g>
					<path style="fill:#FFFFFF;" d="M121.242,298.415c-0.609,2.535-1.014,5.109-1.293,7.694c-0.326,2.579-0.503,5.174-0.635,7.768
						c-0.238,5.19-0.191,10.391,0.115,15.578c0.214,5.194,0.812,10.363,1.449,15.525c0.31,2.583,0.758,5.147,1.127,7.725
						l1.321,7.706c-0.63-2.529-1.218-5.072-1.803-7.616c-0.467-2.566-1.002-5.125-1.406-7.704c-0.39-2.582-0.786-5.166-1.023-7.769
						l-0.395-3.9l-0.268-3.912c-0.224-5.222-0.286-10.461,0.118-15.679C118.988,308.627,119.655,303.397,121.242,298.415z"/>
				</g>
			</g>
			<g>
				<path style="fill:#00A79D;" d="M297.735,127.105c0,0,12.572-59.005-20.173-72.427S296.221,100.682,297.735,127.105z"/>
				<g>
					<path style="fill:#FFFFFF;" d="M274.108,58.605c3.449,3.93,6.154,8.455,8.638,13.047c2.459,4.619,4.501,9.445,6.386,14.32
						l1.321,3.692l1.2,3.732c0.825,2.48,1.497,5.006,2.173,7.529c0.663,2.526,1.197,5.084,1.796,7.623
						c0.483,2.566,0.962,5.131,1.397,7.701l-1.874-7.59c-0.695-2.51-1.311-5.039-2.061-7.53c-1.483-4.985-3.004-9.961-4.888-14.806
						c-1.796-4.875-3.836-9.66-6.132-14.321c-1.16-2.324-2.361-4.631-3.692-6.864C277.083,62.881,275.682,60.684,274.108,58.605z"/>
				</g>
			</g>
		</g>
	</g>
	<g>
		<g>
			<rect x="179.463" y="129.677" style="fill:#D7F0F4;" width="391.074" height="225.997"/>
		</g>
		<path style="fill:#B9E4ED;" d="M375,160.965c-79.926,0-144.718,64.793-144.718,144.718c0,17.571,3.134,34.41,8.87,49.991h271.697
			c5.735-15.581,8.87-32.419,8.87-49.991C519.718,225.757,454.926,160.965,375,160.965z"/>
		<path style="fill:#9ED8E6;" d="M375,208.048c-53.922,0-97.635,43.713-97.635,97.635c0,18.271,5.024,35.367,13.759,49.991h167.752
			c8.735-14.623,13.759-31.719,13.759-49.991C472.635,251.761,428.922,208.048,375,208.048z"/>
		<rect x="179.463" y="315.313" style="fill:#1E2C3A;" width="391.074" height="40.361"/>
		<rect x="179.463" y="129.677" style="fill:#1E2C3A;" width="391.074" height="14.555"/>
		<circle style="fill:#D4484C;" cx="186.8" cy="136.955" r="2.368"/>
		<circle style="fill:#FB9739;" cx="195.832" cy="136.955" r="2.368"/>
		<circle style="fill:#56C3C5;" cx="204.863" cy="136.955" r="2.368"/>
		<g>
			<g>
				<g>
					<g>
						<circle style="fill:none;stroke:#FFFFFF;stroke-miterlimit:10;" cx="375" cy="335.227" r="9.097"/>
					</g>
				</g>
				<g>
					<g>
						<circle style="fill:none;stroke:#FFFFFF;stroke-miterlimit:10;" cx="349.306" cy="335.227" r="9.097"/>
					</g>
				</g>
				<g>
					<g>
						<path style="fill:#FFFFFF;" d="M352.07,336.087l-0.706,0.706l2.2,2.2l0.706-0.706c0.088-0.088,0.088-0.232,0-0.32
							l-1.879-1.879C352.301,335.998,352.158,335.998,352.07,336.087z M345.27,333.474c0.262,1.225,1.782,2.837,2.422,3.472
							c0.635,0.64,2.246,2.16,3.471,2.422c0.479,0.101,1.485,0.292,2.196-0.205l-2.181-2.181c-0.002,0.002-0.004,0.004-0.006,0.007
							c-0.213,0.118-0.78,0.237-1.769-0.873c-0.059-0.059-0.112-0.112-0.162-0.162c-0.557-0.557-0.558-0.558-0.558-0.558
							c-0.05-0.05-0.102-0.102-0.161-0.161c-1.11-0.988-0.991-1.556-0.873-1.768c0.002-0.002,0.004-0.004,0.007-0.006l-2.181-2.181
							C344.978,331.989,345.17,332.996,345.27,333.474z M346.352,330.369l-0.706,0.706l2.199,2.199l0.706-0.706
							c0.088-0.088,0.088-0.232,0-0.32l-1.88-1.88C346.584,330.281,346.44,330.28,346.352,330.369z"/>
					</g>
				</g>
				<g>
					<g>
						<circle style="fill:none;stroke:#FFFFFF;stroke-miterlimit:10;" cx="400.694" cy="335.227" r="9.097"/>
					</g>
				</g>
				<g>
					<g>
						<g>
							<path style="fill:#FFFFFF;" d="M400.694,335.93L400.694,335.93c-0.798,0-1.445-0.647-1.445-1.445v-2.921
								c0-0.798,0.647-1.445,1.445-1.445l0,0c0.798,0,1.445,0.647,1.445,1.445v2.921C402.14,335.283,401.493,335.93,400.694,335.93z
								"/>
						</g>
						<g>
							<path style="fill:#FFFFFF;" d="M401.078,339.927h-0.767v-2.602c-1.604-0.19-2.851-1.558-2.851-3.212v-0.871h0.767v0.871
								c0,1.36,1.107,2.467,2.467,2.467h0.383V339.927z"/>
						</g>
						<g>
							<path style="fill:#FFFFFF;" d="M400.694,337.347v-0.767c1.36,0,2.467-1.107,2.467-2.467v-0.871h0.767v0.871
								C403.929,335.896,402.478,337.347,400.694,337.347z"/>
						</g>
					</g>
					<g>
						<rect x="399.425" y="339.543" style="fill:#FFFFFF;" width="2.58" height="0.767"/>
					</g>
				</g>
			</g>
			<g>
				<path style="fill:#D4484C;" d="M376.581,337.794h-5.409c-0.455,0-0.823-0.369-0.823-0.823v-3.405
					c0-0.455,0.369-0.823,0.823-0.823h5.409c0.455,0,0.823,0.369,0.823,0.823v3.405
					C377.404,337.425,377.035,337.794,376.581,337.794z"/>
				<path style="fill:#D4484C;" d="M380.044,337.099l-1.955-0.588c-0.136-0.041-0.229-0.166-0.229-0.308v-1.868
					c0-0.142,0.093-0.267,0.229-0.308l1.955-0.588c0.207-0.062,0.415,0.093,0.415,0.308v3.044
					C380.459,337.006,380.251,337.161,380.044,337.099z"/>
			</g>
		</g>
		<g>
			<defs>
				
					<rect id="SVGID_1_" x="285.747" y="136.955" transform="matrix(-1 -4.489798e-11 4.489798e-11 -1 750 452.2672)" width="178.505" height="178.358"/>
			</defs>
			<clipPath id="SVGID_00000090978219789248024040000012933075867986927744_">
				<use xlink:href="#SVGID_1_"  style="overflow:visible;"/>
			</clipPath>
			<g style="clip-path:url(#SVGID_00000090978219789248024040000012933075867986927744_);">
				<g>
					<g>
						<g>
							<g>
								
									<rect x="425.321" y="315.013" transform="matrix(0.9984 -0.0571 0.0571 0.9984 -17.7039 25.166)" style="fill:#FABB86;" width="12.617" height="14.882"/>
							</g>
						</g>
					</g>
					<g>
						<g>
							<g>
								<path style="fill:#FABB86;" d="M425.756,330.243l12.597-0.72c0.722,2.622,2.018,7.489,2.388,9.918
									c0.521,3.422,1.937,10.937-0.195,10.912c-1.538-0.018-3.184-7.919-3.184-7.919s1.705,11.129-0.627,11.238
									c-2.329,0.109-3.077-10.693-3.077-10.693s0.893,14.074-1.645,13.535c-2.538-0.539-2.562-12.912-2.562-12.912
									c-0.34,8.291-1.423,11.845-3.29,10.519s-0.421-15.9-0.421-15.9s-3.505,5.769-5.401,3.777
									C418.442,340.008,425.756,330.243,425.756,330.243z"/>
							</g>
						</g>
					</g>
					<path style="fill:#EFA66F;" d="M425.6,327.522l-0.48-8.39c2.125-0.536,4.814-0.865,6.087-0.827
						c1.042,0.032,3.81,1.641,6.706,3.536l0.439,7.682c0.722,2.622,2.018,7.489,2.388,9.918c0.076,0.501,0.172,1.096,0.273,1.737
						c-0.01-0.051-1.187-5.984-4.19-9.334C433.809,328.478,425.601,327.522,425.6,327.522z"/>
					<path style="fill:#FABB86;" d="M425.756,330.243l-0.016,7.979c0,0-3.505,5.769-5.401,3.777
						C418.442,340.008,425.756,330.243,425.756,330.243z"/>
					<path style="fill:#EFA66F;" d="M425.74,338.223c0,0-2.792,4.585-4.741,4.151c1.773-1.552,3.715-5.164,4.747-7.25
						L425.74,338.223z"/>
					<g>
						<g>
							<g>
								
									<rect x="299.327" y="214.335" transform="matrix(0.9661 -0.258 0.258 0.9661 -46.8718 86.3645)" style="fill:#FABB86;" width="12.617" height="14.882"/>
							</g>
						</g>
					</g>
					<g>
						<g>
							<path style="fill:#FABB86;" d="M309.811,212.959l-12.19,3.255c-1.238-2.422-3.492-6.926-4.346-9.229
								c-1.203-3.246-4.111-10.318-2.018-10.726c1.509-0.294,4.721,7.11,4.721,7.11s-3.922-10.554-1.661-11.132
								c2.259-0.578,5.178,9.848,5.178,9.848s-3.724-13.602-1.129-13.588s5.123,12.126,5.123,12.126
								c-1.345-8.188-1.004-11.888,1.092-10.967c2.097,0.921,3.631,15.486,3.631,15.486s2.264-6.359,4.525-4.792
								C314.997,201.917,309.811,212.959,309.811,212.959z"/>
						</g>
					</g>
					<path style="fill:#EFA66F;" d="M310.514,215.593l2.168,8.119c-1.973,0.955-4.539,1.822-5.793,2.042
						c-1.027,0.18-4.064-0.836-7.283-2.105l-1.985-7.434c-1.238-2.422-3.492-6.926-4.346-9.229
						c-0.176-0.475-0.391-1.039-0.619-1.646c0.02,0.048,2.374,5.62,5.992,8.293C302.282,216.318,310.514,215.593,310.514,215.593z"
						/>
					<path style="fill:#FABB86;" d="M309.811,212.959l-1.6-7.817c0,0,2.264-6.359,4.525-4.792
						C314.997,201.917,309.811,212.959,309.811,212.959z"/>
					<path style="fill:#EFA66F;" d="M308.211,205.142c0,0,1.806-5.056,3.803-5.025c-1.422,1.879-2.593,5.809-3.182,8.061
						L308.211,205.142z"/>
					<g>
						<g>
							<path style="fill:#C1343F;" d="M300.121,227.397c0,0,12.415-2.518,13.522-2.876s-0.672-7.042-1.48-7.101
								c-0.808-0.059-13.628,2.275-14.037,2.705C297.717,220.555,298.715,227.679,300.121,227.397z"/>
							<path style="fill:#D4484C;" d="M347.753,231.441c0,0-11.975,18.263-18.224,23.137c-3.383,2.638-13.801-33.352-14.004-34.164
								l-17.86,4.021c0,0,11.617,51.243,22.965,58.011c11.568,6.9,26.26-8.876,26.26-8.876L347.753,231.441z"/>
							<path style="fill:#C1343F;" d="M345.221,254.578c0,0,0.862,0.578,2.03,1.337l-0.361,17.655c0,0-8.779,9.419-18.108,10.512
								C339.121,277.662,345.221,254.578,345.221,254.578z"/>
							<path style="fill:#C1343F;" d="M438.113,318.987c0,0-12.623,1.066-13.764,1.294c-1.141,0.228-0.146,7.072,0.649,7.224
								c0.796,0.152,13.799-0.684,14.255-1.065S439.542,318.869,438.113,318.987z"/>
							<path style="fill:#D4484C;" d="M404.933,231.001c0,0,17.948,19.025,26.544,43.426c7.662,21.751,9.321,47.921,9.321,47.921
								l-18.418,1.268c0,0-0.981-21.073-12.452-48.307L404.933,231.001z"/>
							<path style="fill:#C1343F;" d="M409.927,275.309l-2.337-20.731c0,0,8.488,22.867,9.659,41.64c0,0.001,0,0.002,0,0.004
								C415.48,289.935,413.108,282.861,409.927,275.309z"/>
							<path style="fill-rule:evenodd;clip-rule:evenodd;fill:#1E2C3A;" d="M399.133,192.109c0,0,6.938-11.702,2.51-18.5
								c-2.32-3.561-6.233-4.823-6.233-4.823s-5.806-13.928-24.196-11.559c-15.573,2.006-24.165,12.223-15.564,34.855
								c8.404,22.112,29.492,12.307,29.492,12.307L399.133,192.109z"/>
							<path style="fill:#FABB86;" d="M367.6,218.751h9.013h9.013l0.685,6.695c0,0-1.173,5.063-9.698,5.063
								c-8.525,0-9.698-5.063-9.698-5.063L367.6,218.751z"/>
							<path style="fill-rule:evenodd;clip-rule:evenodd;fill:#EFA66F;" d="M376.613,230.51c-8.525,0-9.698-5.063-9.698-5.063
								l0.685-6.695h6.369c0.748,0.729,1.291,1.257,1.291,1.257s-2.208,17.767,9.878,10.502
								C385.138,230.51,385.138,230.51,376.613,230.51z"/>
							<g>
								<path style="fill-rule:evenodd;clip-rule:evenodd;fill:#FABB86;" d="M357.708,188.87c0-9.467,8.508-17.212,18.904-17.212
									h0.002c10.396,0,18.904,7.745,18.904,17.212c0,0,0.999,32.866-18.904,32.869v0l-0.001,0l-0.001,0v0
									C356.709,221.736,357.708,188.87,357.708,188.87z"/>
								<path style="fill:#EF8950;" d="M373.384,196.162c0,0-3.669,5.52-4.293,7.251c-0.623,1.731,4.293,1.454,4.293,1.454V196.162z
									"/>
								<path style="fill:#FABB86;" d="M400.721,192.58c-2.865-1.279-4.719-0.104-5.672,0.879l-1.061,7.571
									c-0.145,1.031-0.367,2.06-0.655,3.078C402.048,206.349,405.087,194.529,400.721,192.58z"/>
								<path style="fill-rule:evenodd;clip-rule:evenodd;fill:#EFA66F;" d="M396.966,195.892c0,0,1.486-1.32,2.873-0.307
									c1.387,1.013-0.291,6.164-4.128,6.384c0,0,2.551-1.593,2.846-3.61C398.851,196.342,397.892,195.959,396.966,195.892z"/>
								<path style="fill:#FABB86;" d="M352.505,192.58c2.865-1.279,4.719-0.104,5.672,0.879l1.061,7.571
									c0.145,1.031,0.367,2.06,0.655,3.078C351.178,206.349,348.14,194.529,352.505,192.58z"/>
								<g>
									<g>
										<path style="fill-rule:evenodd;clip-rule:evenodd;fill:#1E2C3A;" d="M364.902,194.127c0-0.284-0.541-0.521-1.272-0.593
											c0.202-0.683,0.829-1.188,1.575-1.188c0.907,0,1.649,0.742,1.649,1.649v2.546c0,0.907-0.742,1.649-1.649,1.649
											c-0.907,0-1.649-0.742-1.649-1.649v-1.813C364.326,194.667,364.902,194.422,364.902,194.127z"/>
									</g>
									<g>
										<g>
											<g>
												<path style="fill:#1E2C3A;" d="M386.462,190.909c0.407,0,0.789-0.25,0.938-0.654c0.191-0.518-0.074-1.093-0.592-1.284
													c-4.078-1.505-6.972-0.01-7.093,0.055c-0.488,0.259-0.673,0.864-0.415,1.352c0.258,0.486,0.859,0.672,1.347,0.417
													c0.112-0.057,2.288-1.123,5.468,0.052C386.23,190.889,386.347,190.909,386.462,190.909z"/>
											</g>
										</g>
										<path style="fill-rule:evenodd;clip-rule:evenodd;fill:#1E2C3A;" d="M382.929,194.127c0-0.284-0.541-0.521-1.272-0.593
											c0.202-0.683,0.829-1.188,1.575-1.188c0.907,0,1.649,0.742,1.649,1.649v2.546c0,0.907-0.742,1.649-1.649,1.649
											c-0.907,0-1.649-0.742-1.649-1.649v-1.813C382.352,194.667,382.929,194.422,382.929,194.127z"/>
									</g>
									<g>
										<g>
											<g>
												<path style="fill:#1E2C3A;" d="M361.974,190.909c0.115,0,0.232-0.02,0.346-0.063c3.201-1.18,5.38-0.099,5.472-0.051
													c0.489,0.25,1.091,0.06,1.346-0.427c0.253-0.487,0.07-1.086-0.415-1.343c-0.122-0.064-3.02-1.559-7.094-0.055
													c-0.519,0.191-0.783,0.766-0.593,1.284C361.185,190.658,361.568,190.909,361.974,190.909z"/>
											</g>
										</g>
									</g>
								</g>
							</g>
							<path style="fill-rule:evenodd;clip-rule:evenodd;fill:#EFA66F;" d="M356.26,195.892c0,0-1.486-1.32-2.873-0.307
								c-1.387,1.013,0.291,6.164,4.128,6.384c0,0-2.551-1.593-2.846-3.61C354.375,196.342,355.335,195.959,356.26,195.892z"/>
							<path style="fill-rule:evenodd;clip-rule:evenodd;fill:#D4484C;" d="M347.753,231.441c0.11-1.65,1.322-3.013,2.947-3.324
								c4.924-0.945,9.268-1.673,11.552-2.492c2.702-0.969,4.003-1.427,4.663-0.685c0,0,3.531,5.063,9.698,5.063
								c6.167,0,9.698-5.063,9.698-5.063c0.661-0.742,1.961-0.284,4.663,0.685c2.285,0.819,6.628,1.547,11.552,2.492
								c1.624,0.312,2.837,1.674,2.947,3.324c0.553,8.319,10.648,94.679,9.894,96.082c0,0-17.128,4.281-38.754,4.281
								c-21.626,0-38.754-4.281-38.754-4.281C337.105,326.12,347.2,239.76,347.753,231.441z"/>
							<path style="fill:#C1343F;" d="M345.275,255.185h62.677c-0.194-1.768-0.381-3.476-0.56-5.116h-61.558
								C345.656,251.709,345.469,253.416,345.275,255.185z"/>
							<path style="fill:#C1343F;" d="M344.008,266.689h65.21c-0.191-1.732-0.379-3.44-0.564-5.116h-64.082
								C344.387,263.249,344.199,264.957,344.008,266.689z"/>
						</g>
					</g>
				</g>
				<path style="fill:#FFFFFF;" d="M376.613,232.828c-7.182,0-11.596-4.705-13.581-7.482c2.173-0.768,3.29-1.073,3.883-0.407
					c0,0,3.531,5.063,9.698,5.063c6.167,0,9.698-5.063,9.698-5.063c0.589-0.662,1.695-0.366,3.842,0.393
					C388.632,227.375,383.887,232.828,376.613,232.828z"/>
				<path style="fill:#1E2C3A;" d="M360.974,176.239c0,0,2.71,8.589,17.363,8.084c14.653-0.505,15.52,5.212,17.084,8.788
					l2.085-3.956c0,0,1.895-7.863,0-9.947c-1.895-2.084-5.592-7.863-10.043-9.189c-4.451-1.326-6.766-3.884-11.435-3.884
					s-8.648,1.611-11.395,3.6c-2.747,1.989-3.316,1.042-5.779,2.368s-6.209,2.274-5.947,5.495s0.452,3.531,0.452,4.181
					S360.974,176.239,360.974,176.239z"/>
				<path style="fill-rule:evenodd;clip-rule:evenodd;fill:#EF8950;" d="M368.547,209.251c0,0,6.048,3.163,11.495-0.87
					c0,0-0.576,3.322-4.547,3.936C370.54,213.083,368.547,209.251,368.547,209.251z"/>
			</g>
		</g>
	</g>
	<g>
		<g>
			<path style="fill:#1E2C3A;" d="M539.3,243.357H436.384c-1.476,0-2.672-1.196-2.672-2.672V107.906
				c0-1.476,1.196-2.672,2.672-2.672H539.3c1.476,0,2.672,1.196,2.672,2.672v132.778C541.972,242.16,540.776,243.357,539.3,243.357z
				"/>
			<path style="fill:#FFFFFF;" d="M439.437,235.307V113.284c0-1.284,1.041-2.324,2.324-2.324h92.161
				c1.284,0,2.324,1.041,2.324,2.324v122.024c0,1.284-1.041,2.324-2.324,2.324h-92.161
				C440.478,237.632,439.437,236.591,439.437,235.307z"/>
			<path style="fill:#1E2C3A;" d="M510.903,98.005h-46.122c-2.478,0-4.486,2.009-4.486,4.486v11.637h55.094v-11.637
				C515.389,100.013,513.381,98.005,510.903,98.005z"/>
			<rect x="460.295" y="110.959" style="fill:#324554;" width="55.094" height="3.169"/>
			<circle style="fill:#1E2C3A;" cx="487.842" cy="97.641" r="7.593"/>
			<circle style="fill:#FFFFFF;" cx="487.842" cy="97.641" r="3.803"/>
			<g>
				<circle style="fill:#B9E4ED;" cx="458.981" cy="136.647" r="12.74"/>
				<g>
					<defs>
						<circle id="SVGID_00000146476288859290272260000001879305698230472068_" cx="458.981" cy="136.647" r="12.74"/>
					</defs>
					<use xlink:href="#SVGID_00000146476288859290272260000001879305698230472068_"  style="overflow:visible;fill:#B9E8ED;"/>
					<clipPath id="SVGID_00000101093484390749154080000018104582322282602923_">
						<use xlink:href="#SVGID_00000146476288859290272260000001879305698230472068_"  style="overflow:visible;"/>
					</clipPath>
					<g style="clip-path:url(#SVGID_00000101093484390749154080000018104582322282602923_);">
						<g>
							<g>
								<g>
									<g>
										
											<rect x="444.858" y="162.023" transform="matrix(0.0571 -0.9984 0.9984 0.0571 257.8655 599.9094)" style="fill:#FABB86;" width="3.34" height="2.832"/>
									</g>
								</g>
							</g>
							<g>
								<g>
									<g>
										<path style="fill:#FABB86;" d="M447.847,165.187l-2.827-0.162c-0.162,0.589-0.453,1.681-0.536,2.226
											c-0.117,0.768-0.435,2.455,0.044,2.449c0.345-0.004,0.715-1.777,0.715-1.777s-0.383,2.498,0.141,2.523
											c0.523,0.024,0.691-2.4,0.691-2.4s-0.201,3.159,0.369,3.038c0.57-0.121,0.575-2.898,0.575-2.898
											c0.076,1.861,0.319,2.659,0.738,2.361c0.419-0.298,0.094-3.569,0.094-3.569s0.787,1.295,1.212,0.848
											C449.489,167.379,447.847,165.187,447.847,165.187z"/>
									</g>
								</g>
							</g>
							<path style="fill:#EFA66F;" d="M447.882,164.576l0.108-1.883c-0.477-0.12-1.081-0.194-1.366-0.186
								c-0.234,0.007-0.855,0.368-1.505,0.794l-0.099,1.724c-0.162,0.589-0.453,1.681-0.536,2.226
								c-0.017,0.113-0.039,0.246-0.061,0.39c0.002-0.011,0.267-1.343,0.94-2.095C446.039,164.791,447.882,164.576,447.882,164.576z
								"/>
							<path style="fill:#FABB86;" d="M447.847,165.187l0.004,1.791c0,0,0.787,1.295,1.212,0.848
								C449.489,167.379,447.847,165.187,447.847,165.187z"/>
							<path style="fill:#EFA66F;" d="M447.851,166.978c0,0,0.627,1.029,1.064,0.932c-0.398-0.348-0.834-1.159-1.066-1.627
								L447.851,166.978z"/>
							<g>
								<g>
									<g>
										
											<rect x="473.139" y="139.424" transform="matrix(0.258 -0.9661 0.9661 0.258 216.2338 563.2369)" style="fill:#FABB86;" width="3.34" height="2.832"/>
									</g>
								</g>
							</g>
							<g>
								<g>
									<g>
										<path style="fill:#FABB86;" d="M473.872,138.861l2.736,0.731c0.278-0.544,0.784-1.555,0.976-2.072
											c0.27-0.729,0.923-2.316,0.453-2.408c-0.339-0.066-1.06,1.596-1.06,1.596s0.88-2.369,0.373-2.499
											c-0.507-0.13-1.162,2.211-1.162,2.211s0.836-3.053,0.253-3.05c-0.582,0.003-1.15,2.722-1.15,2.722
											c0.302-1.838,0.225-2.668-0.245-2.462c-0.471,0.207-0.815,3.476-0.815,3.476s-0.508-1.427-1.016-1.076
											C472.708,136.383,473.872,138.861,473.872,138.861z"/>
									</g>
								</g>
							</g>
							<path style="fill:#EFA66F;" d="M473.715,139.453l-0.487,1.822c0.443,0.214,1.019,0.409,1.3,0.458
								c0.231,0.04,0.912-0.188,1.635-0.473l0.446-1.669c0.278-0.544,0.784-1.555,0.976-2.072c0.04-0.107,0.088-0.233,0.139-0.369
								c-0.005,0.011-0.533,1.261-1.345,1.861C475.562,139.615,473.715,139.453,473.715,139.453z"/>
							<path style="fill:#FABB86;" d="M473.872,138.861l0.359-1.755c0,0-0.508-1.427-1.016-1.076
								C472.708,136.383,473.872,138.861,473.872,138.861z"/>
							<path style="fill:#EFA66F;" d="M474.232,137.107c0,0-0.405-1.135-0.854-1.128c0.319,0.422,0.582,1.304,0.714,1.809
								L474.232,137.107z"/>
							<g>
								<g>
									<path style="fill:#C1343F;" d="M476.048,142.102c0,0-2.787-0.565-3.035-0.646c-0.248-0.08,0.151-1.581,0.332-1.594
										c0.181-0.013,3.059,0.511,3.151,0.607C476.587,140.566,476.363,142.165,476.048,142.102z"/>
									<path style="fill:#56C3C5;" d="M465.356,143.01c0,0,2.688,4.099,4.091,5.193c0.759,0.592,3.098-7.486,3.143-7.668
										l4.009,0.902c0,0-2.608,11.502-5.155,13.021c-2.597,1.549-5.894-1.992-5.894-1.992L465.356,143.01z"/>
									<path style="fill:#C1343F;" d="M465.924,148.203c0,0-0.193,0.13-0.456,0.3l0.081,3.963c0,0,1.971,2.114,4.065,2.359
										C467.293,153.385,465.924,148.203,465.924,148.203z"/>
									<path style="fill:#C1343F;" d="M445.073,162.661c0,0,2.833,0.239,3.09,0.29c0.256,0.051,0.033,1.587-0.146,1.622
										c-0.179,0.034-3.097-0.154-3.2-0.239C444.715,164.248,444.753,162.634,445.073,162.661z"/>
									<path style="fill:#56C3C5;" d="M452.521,142.911c0,0-4.029,4.27-5.958,9.747c-1.72,4.882-2.092,10.757-2.092,10.757
										l4.134,0.285c0,0,0.22-4.73,2.795-10.843L452.521,142.911z"/>
									<path style="fill:#C1343F;" d="M451.4,152.857l0.525-4.653c0,0-1.905,5.133-2.168,9.347c0,0,0,0.001,0,0.001
										C450.154,156.14,450.686,154.552,451.4,152.857z"/>
									<path style="fill-rule:evenodd;clip-rule:evenodd;fill:#1E2C3A;" d="M453.823,134.181c0,0-1.557-2.627-0.563-4.152
										c0.521-0.799,1.399-1.083,1.399-1.083s1.303-3.126,5.431-2.595c3.496,0.45,5.424,2.744,3.493,7.824
										c-1.886,4.963-6.62,2.763-6.62,2.763L453.823,134.181z"/>
									<path style="fill:#FABB86;" d="M460.901,140.162h-2.023h-2.023l-0.154,1.503c0,0,0.263,1.137,2.177,1.137
										c1.914,0,2.177-1.137,2.177-1.137L460.901,140.162z"/>
									<path style="fill-rule:evenodd;clip-rule:evenodd;fill:#EFA66F;" d="M458.878,142.801c1.914,0,2.177-1.137,2.177-1.137
										l-0.154-1.503h-1.43c-0.168,0.164-0.29,0.282-0.29,0.282s0.496,3.988-2.217,2.357
										C456.964,142.801,456.964,142.801,458.878,142.801z"/>
									<g>
										<path style="fill-rule:evenodd;clip-rule:evenodd;fill:#FABB86;" d="M463.121,133.454c0-2.125-1.91-3.864-4.243-3.864
											h-0.001c-2.334,0-4.243,1.739-4.243,3.864c0,0-0.224,7.377,4.243,7.378l0,0h0h0l0,0
											C463.346,140.832,463.121,133.454,463.121,133.454z"/>
										<path style="fill:#FABB86;" d="M453.467,134.287c0.643-0.287,1.059-0.023,1.273,0.197l0.238,1.699
											c0.032,0.231,0.082,0.462,0.147,0.691C453.169,137.378,452.487,134.724,453.467,134.287z"/>
										<path style="fill-rule:evenodd;clip-rule:evenodd;fill:#EFA66F;" d="M454.309,135.03c0,0-0.333-0.296-0.645-0.069
											c-0.311,0.227,0.065,1.383,0.927,1.433c0,0-0.573-0.358-0.639-0.81C453.886,135.131,454.102,135.045,454.309,135.03z"/>
										<path style="fill:#FABB86;" d="M464.289,134.287c-0.643-0.287-1.059-0.023-1.273,0.197l-0.238,1.699
											c-0.032,0.231-0.082,0.462-0.147,0.691C464.587,137.378,465.269,134.724,464.289,134.287z"/>
										<g>
											<g>
												<path style="fill-rule:evenodd;clip-rule:evenodd;fill:#1E2C3A;" d="M461.507,134.634c0-0.064,0.121-0.117,0.286-0.133
													c-0.045-0.153-0.186-0.267-0.353-0.267c-0.204,0-0.37,0.167-0.37,0.37v0.571c0,0.204,0.167,0.37,0.37,0.37
													c0.204,0,0.37-0.167,0.37-0.37v-0.407C461.636,134.755,461.507,134.7,461.507,134.634z"/>
											</g>
											<g>
												<g>
													<g>
														<path style="fill:#1E2C3A;" d="M456.667,133.912c-0.091,0-0.177-0.056-0.211-0.147
															c-0.043-0.116,0.017-0.245,0.133-0.288c0.915-0.338,1.565-0.002,1.592,0.012c0.109,0.058,0.151,0.194,0.093,0.303
															c-0.058,0.109-0.193,0.151-0.302,0.094c-0.025-0.013-0.514-0.252-1.227,0.012
															C456.719,133.907,456.693,133.912,456.667,133.912z"/>
													</g>
												</g>
												<path style="fill-rule:evenodd;clip-rule:evenodd;fill:#1E2C3A;" d="M457.46,134.634c0-0.064,0.121-0.117,0.286-0.133
													c-0.045-0.153-0.186-0.267-0.353-0.267c-0.204,0-0.37,0.167-0.37,0.37v0.571c0,0.204,0.167,0.37,0.37,0.37
													c0.204,0,0.37-0.167,0.37-0.37v-0.407C457.59,134.755,457.46,134.7,457.46,134.634z"/>
											</g>
											<g>
												<g>
													<g>
														<path style="fill:#1E2C3A;" d="M462.164,133.912c-0.026,0-0.052-0.004-0.078-0.014
															c-0.719-0.265-1.208-0.022-1.228-0.012c-0.11,0.056-0.245,0.013-0.302-0.096c-0.057-0.109-0.016-0.244,0.093-0.302
															c0.027-0.014,0.678-0.35,1.592-0.012c0.116,0.043,0.176,0.172,0.133,0.288
															C462.341,133.856,462.255,133.912,462.164,133.912z"/>
													</g>
												</g>
											</g>
										</g>
									</g>
									<path style="fill-rule:evenodd;clip-rule:evenodd;fill:#EFA66F;" d="M463.446,135.03c0,0,0.333-0.296,0.645-0.069
										c0.311,0.227-0.065,1.383-0.927,1.433c0,0,0.573-0.358,0.639-0.81C463.869,135.131,463.654,135.045,463.446,135.03z"/>
									<path style="fill-rule:evenodd;clip-rule:evenodd;fill:#56C3C5;" d="M465.356,143.01c-0.025-0.37-0.297-0.676-0.661-0.746
										c-1.105-0.212-2.08-0.376-2.593-0.559c-0.607-0.217-0.898-0.32-1.047-0.154c0,0-0.793,1.137-2.177,1.137
										c-1.384,0-2.177-1.137-2.177-1.137c-0.148-0.167-0.44-0.064-1.047,0.154c-0.513,0.184-1.488,0.347-2.593,0.559
										c-0.365,0.07-0.637,0.376-0.661,0.746c-0.124,1.867-2.39,21.252-2.221,21.567c0,0,3.845,0.961,8.699,0.961
										c4.854,0,8.699-0.961,8.699-0.961C467.746,164.262,465.48,144.877,465.356,143.01z"/>
								</g>
							</g>
							<path style="fill:#E27466;" d="M459.668,134.921c0,0,0.232,0.972,0.469,1.31c0.237,0.338,0.025,0.541-0.549,0.532
								c-0.575-0.008,0.186-0.127,0.211-0.431C459.825,136.028,459.486,135.572,459.668,134.921z"/>
						</g>
						<path style="fill:#FFFFFF;" d="M458.878,143.321c1.612,0,2.603-1.056,3.048-1.679c-0.488-0.172-0.738-0.241-0.872-0.091
							c0,0-0.793,1.137-2.177,1.137c-1.384,0-2.177-1.137-2.177-1.137c-0.132-0.149-0.38-0.082-0.862,0.088
							C456.18,142.097,457.245,143.321,458.878,143.321z"/>
						<path style="fill:#1E2C3A;" d="M462.388,130.619c0,0-0.608,1.928-3.897,1.815c-3.289-0.113-3.484,1.17-3.835,1.973
							l-0.468-0.888c0,0-0.425-1.765,0-2.233c0.425-0.468,1.255-1.765,2.254-2.063c0.999-0.298,1.519-0.872,2.567-0.872
							s1.941,0.362,2.558,0.808c0.617,0.447,0.744,0.234,1.297,0.532c0.553,0.298,1.394,0.51,1.335,1.233s-0.101,0.792-0.101,0.939
							S462.388,130.619,462.388,130.619z"/>
						<path style="fill-rule:evenodd;clip-rule:evenodd;fill:#E27466;" d="M460.688,138.029c0,0-1.357,0.71-2.58-0.195
							c0,0,0.129,0.746,1.021,0.883C460.241,138.889,460.688,138.029,460.688,138.029z"/>
					</g>
				</g>
				<g>
					<rect x="477.35" y="126.028" style="fill-rule:evenodd;clip-rule:evenodd;fill:#4A5D6D;" width="50.84" height="3.327"/>
					<rect x="477.35" y="131.657" style="fill-rule:evenodd;clip-rule:evenodd;fill:#4A5D6D;" width="50.84" height="3.327"/>
					<rect x="477.35" y="137.286" style="fill-rule:evenodd;clip-rule:evenodd;fill:#4A5D6D;" width="50.84" height="3.327"/>
					<rect x="477.35" y="142.915" style="fill-rule:evenodd;clip-rule:evenodd;fill:#4A5D6D;" width="25.42" height="3.327"/>
				</g>
			</g>
			<g>
				<g>
					<g>
						<g>
							<g>
								<g>
									<polygon style="fill:#00A79D;" points="459.383,169.521 456.084,166.221 457.416,164.842 459.319,166.746 463.633,162.48 
										465.029,163.875 									"/>
								</g>
							</g>
						</g>
						<polyline style="fill-rule:evenodd;clip-rule:evenodd;fill:none;stroke:#00A79D;stroke-miterlimit:10;" points="
							462.859,170.89 452.933,170.89 452.933,160.965 462.859,160.965 						"/>
					</g>
					<rect x="477.35" y="161.444" style="fill-rule:evenodd;clip-rule:evenodd;fill:#4A5D6D;" width="50.84" height="3.327"/>
					<rect x="477.35" y="167.23" style="fill-rule:evenodd;clip-rule:evenodd;fill:#4A5D6D;" width="25.42" height="3.327"/>
				</g>
				<g>
					<g>
						<g>
							<g>
								<g>
									<polygon style="fill:#00A79D;" points="459.383,188.012 456.084,184.712 457.416,183.333 459.319,185.237 463.633,180.971 
										465.029,182.366 									"/>
								</g>
							</g>
						</g>
						<polyline style="fill-rule:evenodd;clip-rule:evenodd;fill:none;stroke:#00A79D;stroke-miterlimit:10;" points="
							462.859,189.381 452.933,189.381 452.933,179.456 462.859,179.456 						"/>
					</g>
					<rect x="477.35" y="179.935" style="fill-rule:evenodd;clip-rule:evenodd;fill:#4A5D6D;" width="50.84" height="3.327"/>
					<rect x="477.35" y="185.721" style="fill-rule:evenodd;clip-rule:evenodd;fill:#4A5D6D;" width="25.42" height="3.327"/>
				</g>
				<g>
					<g>
						<g>
							<g>
								<g>
									<polygon style="fill:#00A79D;" points="459.383,206.503 456.084,203.203 457.416,201.824 459.319,203.728 463.633,199.462 
										465.029,200.857 									"/>
								</g>
							</g>
						</g>
						<polyline style="fill-rule:evenodd;clip-rule:evenodd;fill:none;stroke:#00A79D;stroke-miterlimit:10;" points="
							462.859,207.872 452.933,207.872 452.933,197.947 462.859,197.947 						"/>
					</g>
					<rect x="477.35" y="198.426" style="fill-rule:evenodd;clip-rule:evenodd;fill:#4A5D6D;" width="50.84" height="3.327"/>
					<rect x="477.35" y="204.212" style="fill-rule:evenodd;clip-rule:evenodd;fill:#4A5D6D;" width="25.42" height="3.327"/>
				</g>
				<g>
					<g>
						<g>
							<g>
								<g>
									<polygon style="fill:#00A79D;" points="459.383,224.994 456.084,221.694 457.416,220.315 459.319,222.219 463.633,217.953 
										465.029,219.348 									"/>
								</g>
							</g>
						</g>
						<polyline style="fill-rule:evenodd;clip-rule:evenodd;fill:none;stroke:#00A79D;stroke-miterlimit:10;" points="
							462.859,226.363 452.933,226.363 452.933,216.438 462.859,216.438 						"/>
					</g>
					<rect x="477.35" y="216.917" style="fill-rule:evenodd;clip-rule:evenodd;fill:#4A5D6D;" width="50.84" height="3.327"/>
					<rect x="477.35" y="222.703" style="fill-rule:evenodd;clip-rule:evenodd;fill:#4A5D6D;" width="25.42" height="3.327"/>
				</g>
			</g>
		</g>
		<g>
			<g>
				<g>
					<rect x="464.576" y="259.011" style="fill:#B9E4ED;" width="154.792" height="120.825"/>
				</g>
				<rect x="464.576" y="259.011" style="fill:#1E2C3A;" width="154.792" height="10.872"/>
				<circle style="fill:#D4484C;" cx="470.057" cy="264.447" r="1.769"/>
				<circle style="fill:#FB9739;" cx="476.803" cy="264.447" r="1.769"/>
				<circle style="fill:#56C3C5;" cx="483.549" cy="264.447" r="1.769"/>
			</g>
			<g>
				<rect x="476.803" y="361.677" style="fill:#FFFFFF;" width="5.084" height="8.967"/>
				<rect x="486.458" y="356.231" style="fill:#FFFFFF;" width="5.084" height="14.413"/>
				<rect x="496.114" y="339.397" style="fill:#FFFFFF;" width="5.084" height="31.247"/>
				<rect x="505.769" y="349.96" style="fill:#FFFFFF;" width="5.084" height="20.685"/>
				<rect x="515.424" y="360.302" style="fill:#FFFFFF;" width="5.084" height="10.342"/>
				<rect x="525.08" y="346.989" style="fill:#FFFFFF;" width="5.084" height="23.655"/>
				<rect x="534.735" y="365.561" style="fill:#FFFFFF;" width="5.084" height="5.084"/>
				<rect x="544.391" y="357.882" style="fill:#FFFFFF;" width="5.084" height="12.763"/>
				<rect x="554.046" y="345.174" style="fill:#FFFFFF;" width="5.084" height="25.471"/>
				<rect x="563.701" y="355.021" style="fill:#FFFFFF;" width="5.084" height="15.624"/>
				<rect x="573.357" y="360.302" style="fill:#FFFFFF;" width="5.084" height="10.342"/>
				<rect x="583.012" y="349.96" style="fill:#FFFFFF;" width="5.084" height="20.685"/>
				<rect x="592.667" y="339.397" style="fill:#FFFFFF;" width="5.084" height="31.247"/>
				<rect x="602.323" y="355.021" style="fill:#FFFFFF;" width="5.084" height="15.624"/>
			</g>
			<g>
				<polygon style="fill:#D4484C;" points="487.706,324.375 481.179,324.375 484.442,311.461 487.706,298.547 490.97,311.461 
					494.233,324.375 				"/>
				<polygon style="fill:#FFFFFF;" points="500.403,324.375 493.876,324.375 497.139,319.421 500.403,314.467 503.667,319.421 
					506.93,324.375 				"/>
				<polygon style="fill:#D4484C;" points="538.593,324.375 532.066,324.375 535.329,317.918 538.593,311.461 541.857,317.918 
					545.12,324.375 				"/>
				<polygon style="fill:#FB9739;" points="525.91,324.375 519.383,324.375 522.647,314.467 525.91,304.559 529.174,314.467 
					532.438,324.375 				"/>
				<polygon style="fill:#13AAAA;" points="513.128,324.375 506.6,324.375 509.864,306.105 513.128,287.835 516.391,306.105 
					519.655,324.375 				"/>
			</g>
			<line style="fill:none;stroke:#13AAAA;stroke-miterlimit:10;" x1="475.543" y1="324.375" x2="549.767" y2="324.375"/>
			<rect x="475.543" y="280.149" style="fill:#FFFFFF;" width="25.654" height="1.98"/>
			<rect x="475.543" y="283.992" style="fill:#FFFFFF;" width="25.654" height="1.98"/>
			<rect x="475.543" y="287.835" style="fill:#FFFFFF;" width="13.043" height="1.98"/>
			<polyline style="fill:none;stroke:#FFFFFF;stroke-miterlimit:10;" points="556.588,280.149 556.588,324.375 607.406,324.375 			
				"/>
			<g>
				<g>
					<polyline style="fill:none;stroke:#FFFFFF;stroke-miterlimit:10;" points="559.711,319.421 574.373,304.759 581.308,311.694 
						603.871,289.13 					"/>
					<polygon style="fill:#FFFFFF;" points="603.246,289.45 601.538,287.742 603.871,287.117 606.204,286.491 605.579,288.824 
						604.954,291.157 					"/>
				</g>
				<g>
					<g>
						
							<line style="fill:none;stroke:#FFFFFF;stroke-width:0.25;stroke-miterlimit:10;" x1="556.588" y1="318.383" x2="557.588" y2="318.383"/>
						
							<line style="fill:none;stroke:#FFFFFF;stroke-width:0.25;stroke-miterlimit:10;stroke-dasharray:2.1226,4.2451;" x1="561.833" y1="318.383" x2="604.284" y2="318.383"/>
						
							<line style="fill:none;stroke:#FFFFFF;stroke-width:0.25;stroke-miterlimit:10;" x1="606.406" y1="318.383" x2="607.406" y2="318.383"/>
					</g>
				</g>
				<g>
					<g>
						
							<line style="fill:none;stroke:#FFFFFF;stroke-width:0.25;stroke-miterlimit:10;" x1="556.588" y1="311.461" x2="557.588" y2="311.461"/>
						
							<line style="fill:none;stroke:#FFFFFF;stroke-width:0.25;stroke-miterlimit:10;stroke-dasharray:2.1226,4.2451;" x1="561.833" y1="311.461" x2="604.284" y2="311.461"/>
						
							<line style="fill:none;stroke:#FFFFFF;stroke-width:0.25;stroke-miterlimit:10;" x1="606.406" y1="311.461" x2="607.406" y2="311.461"/>
					</g>
				</g>
				<g>
					<g>
						
							<line style="fill:none;stroke:#FFFFFF;stroke-width:0.25;stroke-miterlimit:10;" x1="556.588" y1="304.54" x2="557.588" y2="304.54"/>
						
							<line style="fill:none;stroke:#FFFFFF;stroke-width:0.25;stroke-miterlimit:10;stroke-dasharray:2.1226,4.2451;" x1="561.833" y1="304.54" x2="604.284" y2="304.54"/>
						
							<line style="fill:none;stroke:#FFFFFF;stroke-width:0.25;stroke-miterlimit:10;" x1="606.406" y1="304.54" x2="607.406" y2="304.54"/>
					</g>
				</g>
				<g>
					<g>
						
							<line style="fill:none;stroke:#FFFFFF;stroke-width:0.25;stroke-miterlimit:10;" x1="556.588" y1="297.619" x2="557.588" y2="297.619"/>
						
							<line style="fill:none;stroke:#FFFFFF;stroke-width:0.25;stroke-miterlimit:10;stroke-dasharray:2.1226,4.2451;" x1="561.833" y1="297.619" x2="604.284" y2="297.619"/>
						
							<line style="fill:none;stroke:#FFFFFF;stroke-width:0.25;stroke-miterlimit:10;" x1="606.406" y1="297.619" x2="607.406" y2="297.619"/>
					</g>
				</g>
				<g>
					<g>
						
							<line style="fill:none;stroke:#FFFFFF;stroke-width:0.25;stroke-miterlimit:10;" x1="556.588" y1="290.698" x2="557.588" y2="290.698"/>
						
							<line style="fill:none;stroke:#FFFFFF;stroke-width:0.25;stroke-miterlimit:10;stroke-dasharray:2.1226,4.2451;" x1="561.833" y1="290.698" x2="604.284" y2="290.698"/>
						
							<line style="fill:none;stroke:#FFFFFF;stroke-width:0.25;stroke-miterlimit:10;" x1="606.406" y1="290.698" x2="607.406" y2="290.698"/>
					</g>
				</g>
				<g>
					<g>
						
							<line style="fill:none;stroke:#FFFFFF;stroke-width:0.25;stroke-miterlimit:10;" x1="556.588" y1="283.776" x2="557.588" y2="283.776"/>
						
							<line style="fill:none;stroke:#FFFFFF;stroke-width:0.25;stroke-miterlimit:10;stroke-dasharray:2.1226,4.2451;" x1="561.833" y1="283.776" x2="604.284" y2="283.776"/>
						
							<line style="fill:none;stroke:#FFFFFF;stroke-width:0.25;stroke-miterlimit:10;" x1="606.406" y1="283.776" x2="607.406" y2="283.776"/>
					</g>
				</g>
			</g>
		</g>
	</g>
	<g>
		<g>
			<g>
				<polygon style="fill:#00A79D;" points="190.783,186.021 190.783,194.792 180.894,184.903 				"/>
			</g>
			<path style="fill:#00A79D;" d="M193.891,186.319H169.17c-7.858,0-14.228-6.37-14.228-14.228v0c0-7.858,6.37-14.228,14.228-14.228
				h24.722c7.858,0,14.228,6.37,14.228,14.228v0C208.119,179.948,201.749,186.319,193.891,186.319z"/>
			<g>
				<g>
					<circle style="fill:#FFFFFF;" cx="181.53" cy="172.09" r="2.498"/>
				</g>
				<g>
					<g>
						<circle style="fill:#FFFFFF;" cx="193.979" cy="172.09" r="2.498"/>
					</g>
				</g>
				<g>
					<circle style="fill:#FFFFFF;" cx="169.082" cy="172.09" r="2.498"/>
				</g>
			</g>
		</g>
		<path style="fill-rule:evenodd;clip-rule:evenodd;fill:#00A79D;" d="M412.612,96.558c-0.707-4.488-2.802-8.216-6.208-11.2
			c-2.727-2.389-5.907-3.83-9.494-4.366c-0.435-0.065-0.873-0.114-1.31-0.17c-0.816,0-1.633,0-2.449,0
			c-0.496,0.068-0.993,0.13-1.488,0.207c-3.67,0.562-6.879,2.106-9.621,4.597c-3.051,2.772-5.04,6.182-5.784,10.242
			c-1.03,5.628,0.32,10.693,3.941,15.109c2.816,3.434,6.444,5.617,10.817,6.418c5.432,0.995,10.368-0.259,14.708-3.663
			c3.737-2.93,6.01-6.782,6.851-11.464c0.106-0.588,0.164-1.183,0.245-1.774c0-0.817,0-1.633,0-2.45
			C412.751,97.547,412.69,97.051,412.612,96.558z M393.636,92.214c0.001,1.993-0.002,3.986,0.004,5.979
			c0.001,0.232-0.04,0.343-0.311,0.341c-2.269-0.01-4.538-0.006-6.807-0.006c-0.059,0-0.118-0.008-0.252-0.019
			c0.036-0.736,0.019-1.448,0.116-2.145c0.231-1.646,0.517-3.286,0.778-4.93c0.03-0.185,0.1-0.281,0.307-0.236
			c1.975,0.426,3.978,0.613,5.994,0.692c0.046,0.001,0.091,0.021,0.152,0.036C393.624,92.026,393.636,92.12,393.636,92.214z
			 M391.418,83.457c0.72-0.593,1.582-1.001,2.193-1.034c0,2.646,0,5.291,0,7.959c-1.153,0.075-4.696-0.323-5.994-0.679
			c0.333-0.811,0.632-1.629,1-2.414C389.298,85.832,390.156,84.494,391.418,83.457z M389.882,82.923
			c-1.721,1.873-2.786,4.104-3.606,6.485c-1.527-0.41-2.984-0.929-4.402-1.682C384.102,85.339,386.755,83.747,389.882,82.923z
			 M380.819,88.982c1.697,0.657,3.331,1.289,5.007,1.939c-0.638,2.431-0.981,4.975-1.043,7.581c-2.44,0-4.868,0-7.352,0
			C377.602,94.95,378.732,91.764,380.819,88.982z M380.821,109.547c-2.079-2.743-3.205-5.934-3.393-9.523c2.472,0,4.893,0,7.352,0
			c0.067,2.589,0.397,5.135,1.047,7.588C384.168,108.253,382.532,108.885,380.821,109.547z M381.893,110.795
			c1.398-0.741,2.845-1.256,4.379-1.672c0.823,2.368,1.877,4.606,3.633,6.462C388.07,115.549,383.594,112.874,381.893,110.795z
			 M393.612,116.172c-0.32-0.107-0.624-0.184-0.91-0.308c-0.934-0.402-1.681-1.051-2.328-1.822c-1.292-1.539-2.092-3.33-2.725-5.24
			c1.976-0.428,3.949-0.611,5.963-0.672C393.612,110.798,393.612,113.443,393.612,116.172z M393.635,106.388
			c0,0.07-0.015,0.14-0.027,0.237c-0.699,0.045-1.395,0.059-2.083,0.141c-1.307,0.156-2.613,0.334-3.913,0.541
			c-0.317,0.05-0.405-0.012-0.477-0.314c-0.524-2.213-0.8-4.455-0.846-6.728c-0.001-0.07,0.011-0.141,0.019-0.233
			c0.1-0.009,0.192-0.026,0.285-0.026c2.233-0.001,4.465,0.001,6.698-0.004c0.22-0.001,0.352,0.019,0.351,0.301
			C393.631,102.332,393.637,104.36,393.635,106.388z M406.875,87.723c-1.404,0.757-2.864,1.264-4.327,1.669
			c-0.518-1.145-1.001-2.287-1.548-3.397c-0.553-1.121-1.289-2.126-2.129-3.065C401.995,83.744,404.642,85.342,406.875,87.723z
			 M402.457,98.23c0.001,0.083-0.008,0.165-0.014,0.284c-2.448,0-4.857,0-7.298,0c0-2.199,0-4.387,0-6.606
			c0.68-0.044,1.363-0.057,2.038-0.138c1.331-0.16,2.659-0.349,3.984-0.55c0.274-0.042,0.367,0.004,0.434,0.284
			C402.132,93.715,402.408,95.957,402.457,98.23z M395.142,82.363c0.317,0.106,0.623,0.183,0.909,0.308
			c1.099,0.478,1.932,1.282,2.645,2.219c1.103,1.448,1.823,3.085,2.398,4.825c-1.337,0.352-4.839,0.743-5.952,0.667
			C395.142,87.738,395.142,85.091,395.142,82.363z M395.11,100.35c0-0.221,0.02-0.351,0.301-0.35
			c2.269,0.01,4.537,0.006,6.805,0.007c0.069,0,0.139,0.016,0.26,0.031c-0.035,0.716-0.018,1.426-0.115,2.12
			c-0.23,1.647-0.516,3.286-0.776,4.928c-0.032,0.206-0.115,0.29-0.335,0.242c-1.891-0.409-3.809-0.603-5.74-0.676
			c-0.118-0.004-0.236-0.017-0.372-0.027c-0.009-0.115-0.024-0.208-0.024-0.3C395.113,104.334,395.115,102.342,395.11,100.35z
			 M397.551,114.888c-0.634,0.565-1.346,0.998-2.178,1.21c-0.067,0.017-0.137,0.022-0.234,0.036c0-2.669,0-5.315,0-8.004
			c2.014,0.061,3.979,0.246,6,0.681c-0.336,0.818-0.637,1.621-0.993,2.397C399.51,112.592,398.7,113.862,397.551,114.888z
			 M398.866,115.61c1.72-1.873,2.786-4.103,3.606-6.486c1.528,0.409,2.984,0.93,4.403,1.682
			C404.646,113.193,401.992,114.784,398.866,115.61z M407.929,109.547c-1.709-0.661-3.334-1.289-5.006-1.936
			c0.635-2.422,0.979-4.965,1.042-7.575c2.437,0,4.864,0,7.351,0C411.146,103.588,410.012,106.779,407.929,109.547z M403.971,98.509
			c-0.077-2.587-0.396-5.142-1.054-7.588c1.671-0.645,3.305-1.277,5.012-1.936c2.086,2.769,3.21,5.96,3.391,9.524
			C408.854,98.509,406.435,98.509,403.971,98.509z"/>
		<g>
			<g>
				
					<text transform="matrix(1 0 0 1 565.9319 243.3564)" style="fill:#FB9739; font-family:'FontAwesome5FreeSolid'; font-size:34.5424px;">COG</text>
			</g>
		</g>
		<g>
			<g>
				<g>
					<g>
						<path style="fill:#D4484C;" d="M125.787,215.468l3.294,3.294c4.546-4.546,11.926-4.546,16.472,0l3.294-3.294
							C142.482,209.102,132.154,209.102,125.787,215.468z"/>
						<path style="fill:#D4484C;" d="M119.199,208.879l3.294,3.294c8.187-8.187,21.463-8.187,29.65,0l3.294-3.294
							C145.43,198.873,129.205,198.873,119.199,208.879z"/>
					</g>
				</g>
				<circle style="fill:#D4484C;" cx="137.318" cy="222.059" r="3.296"/>
			</g>
		</g>
		<g>
			<g>
				<path style="fill:#FFFFFF;" d="M275.48,279.49h-15.273c-0.455,0-0.823-0.369-0.823-0.823V268.2c0-0.455,0.369-0.823,0.823-0.823
					h15.273c0.455,0,0.823,0.369,0.823,0.823v10.467C276.303,279.121,275.935,279.49,275.48,279.49z"/>
				<path style="fill:#FFFFFF;" d="M282.635,277.823l-4.688-1.411c-0.326-0.098-0.55-0.399-0.55-0.739v-4.479
					c0-0.341,0.223-0.641,0.55-0.739l4.688-1.411c0.495-0.149,0.994,0.222,0.994,0.739v7.301
					C283.63,277.601,283.131,277.972,282.635,277.823z"/>
			</g>
			<path style="fill:none;stroke:#FFFFFF;stroke-width:2;stroke-miterlimit:10;" d="M271.507,251.276
				c-12.237,0-22.157,9.92-22.157,22.157c0,6.249,2.591,11.89,6.753,15.918l-4.539,10.108l10.213-6.118
				c2.938,1.438,6.239,2.248,9.73,2.248c12.237,0,22.157-9.92,22.157-22.157C293.664,261.196,283.744,251.276,271.507,251.276z"/>
		</g>
	</g>
	<g>
		<g>
			<g>
				<path style="fill:#D4484C;" d="M238.276,409.823l9.905,8.283l-3.829-12.054c3.778-1.752,7.984-2.736,12.423-2.736
					c6.414,0,12.347,2.048,17.193,5.518l-2.039,6.032l5.602-3.038c5.444,5.364,8.822,12.82,8.822,21.067h-59.157
					C227.196,423.563,231.523,415.244,238.276,409.823z"/>
			</g>
			<g>
				<path style="fill:#E8646E;" d="M248.079,422.051l4.656,3.894l-1.8-5.666c1.776-0.823,3.753-1.286,5.839-1.286
					c3.015,0,5.804,0.963,8.081,2.594l-0.959,2.835l2.633-1.428c2.559,2.521,4.147,6.026,4.147,9.902h-27.806
					C242.871,428.509,244.905,424.599,248.079,422.051z"/>
			</g>
			<g>
				<g>
					<path style="fill:#FFFFFF;" d="M273.804,423.144c0.08,0,0.16-0.012,0.24-0.038c1.048-0.335,2.551-1.514,4.001-2.693
						c0.237-0.192,0.436-0.355,0.579-0.465c0.345-0.265,0.41-0.76,0.144-1.105c-0.265-0.345-0.759-0.41-1.104-0.145
						c-0.152,0.117-0.362,0.288-0.613,0.492c-0.921,0.749-2.634,2.142-3.487,2.415c-0.414,0.132-0.643,0.576-0.51,0.99
						C273.161,422.931,273.471,423.144,273.804,423.144z"/>
				</g>
				<g>
					<path style="fill:#FFFFFF;" d="M265.43,416.534c0.192,0,0.385-0.07,0.536-0.211c0.806-0.749,1.663-2.454,2.473-4.138
						c0.133-0.276,0.244-0.509,0.327-0.669c0.199-0.387,0.047-0.862-0.34-1.061c-0.388-0.202-0.862-0.048-1.061,0.339
						c-0.088,0.17-0.206,0.415-0.346,0.708c-0.514,1.069-1.471,3.058-2.125,3.667c-0.319,0.296-0.337,0.795-0.041,1.113
						C265.008,416.45,265.219,416.534,265.43,416.534z"/>
				</g>
				<g>
					<path style="fill:#FFFFFF;" d="M255.423,414.303c0.348,0,0.667-0.232,0.761-0.585c0.284-1.062,0.103-2.962-0.107-4.818
						c-0.035-0.305-0.063-0.562-0.079-0.742c-0.037-0.434-0.419-0.765-0.852-0.718c-0.434,0.037-0.755,0.418-0.718,0.852
						c0.017,0.191,0.047,0.462,0.083,0.786c0.133,1.178,0.38,3.371,0.15,4.235c-0.112,0.42,0.138,0.852,0.558,0.964
						C255.287,414.295,255.355,414.303,255.423,414.303z"/>
				</g>
				<g>
					<path style="fill:#FFFFFF;" d="M238.354,423.234c0.184,0,0.369-0.064,0.519-0.195c0.327-0.287,0.36-0.785,0.074-1.112
						c-0.725-0.829-2.406-1.739-4.066-2.601c-0.27-0.14-0.497-0.258-0.654-0.345c-0.381-0.21-0.861-0.073-1.071,0.308
						c-0.211,0.381-0.073,0.86,0.308,1.071c0.167,0.092,0.406,0.217,0.692,0.365c1.054,0.547,3.016,1.566,3.606,2.239
						C237.916,423.144,238.134,423.234,238.354,423.234z"/>
				</g>
			</g>
		</g>
		<g>
			<g>
				<path style="fill:#13AAAA;" d="M284.884,415.68l7.391,6.181l-2.857-8.994c2.819-1.307,5.958-2.041,9.27-2.041
					c4.786,0,9.213,1.529,12.829,4.117l-1.522,4.501l4.18-2.267c4.062,4.003,6.583,9.566,6.583,15.719h-44.141
					C276.617,425.932,279.846,419.725,284.884,415.68z"/>
			</g>
			<g>
				<path style="fill:#27C4BF;" d="M292.199,424.804l3.474,2.905l-1.343-4.228c1.325-0.614,2.8-0.959,4.357-0.959
					c2.25,0,4.33,0.718,6.03,1.935l-0.715,2.116l1.965-1.065c1.909,1.881,3.094,4.496,3.094,7.389h-20.748
					C288.313,429.622,289.831,426.705,292.199,424.804z"/>
			</g>
			<g>
				<g>
					<path style="fill:#FFFFFF;" d="M311.395,425.819c0.079,0,0.16-0.012,0.24-0.038c0.815-0.26,1.954-1.153,3.05-2.044
						c0.175-0.142,0.323-0.262,0.429-0.344c0.345-0.265,0.41-0.76,0.145-1.105c-0.265-0.345-0.76-0.41-1.105-0.145
						c-0.114,0.088-0.274,0.217-0.463,0.371c-0.628,0.511-1.935,1.575-2.535,1.767c-0.415,0.132-0.643,0.576-0.511,0.99
						C310.751,425.606,311.061,425.819,311.395,425.819z"/>
				</g>
				<g>
					<path style="fill:#FFFFFF;" d="M305.146,420.888c0.192,0,0.385-0.07,0.537-0.211c0.627-0.584,1.278-1.877,1.892-3.152
						c0.097-0.202,0.178-0.372,0.239-0.491c0.199-0.387,0.047-0.862-0.34-1.061c-0.387-0.199-0.862-0.046-1.061,0.341
						c-0.065,0.127-0.154,0.31-0.259,0.528c-0.351,0.731-1.083,2.252-1.545,2.681c-0.319,0.296-0.337,0.795-0.04,1.113
						C304.724,420.803,304.935,420.888,305.146,420.888z"/>
				</g>
				<g>
					<path style="fill:#FFFFFF;" d="M297.679,419.223c0.348,0,0.667-0.232,0.761-0.585c0.22-0.827,0.084-2.267-0.074-3.671
						c-0.025-0.225-0.047-0.414-0.058-0.547c-0.037-0.434-0.416-0.763-0.852-0.718c-0.434,0.037-0.755,0.419-0.718,0.852
						c0.012,0.144,0.035,0.348,0.063,0.59c0.091,0.805,0.28,2.479,0.117,3.088c-0.112,0.42,0.138,0.852,0.558,0.964
						C297.543,419.214,297.612,419.223,297.679,419.223z"/>
				</g>
				<g>
					<path style="fill:#FFFFFF;" d="M284.942,425.887c0.184,0,0.369-0.064,0.518-0.195c0.327-0.286,0.361-0.784,0.075-1.112
						c-0.562-0.644-1.833-1.333-3.086-1.983c-0.202-0.105-0.372-0.193-0.489-0.258c-0.38-0.212-0.861-0.074-1.071,0.306
						c-0.211,0.381-0.074,0.86,0.307,1.071c0.127,0.071,0.31,0.166,0.528,0.279c0.718,0.372,2.212,1.148,2.626,1.622
						C284.505,425.796,284.723,425.887,284.942,425.887z"/>
				</g>
			</g>
		</g>
		<g>
			<g>
				<path style="fill:#25BAB6;" d="M221.171,446.383c0,0,6.332-21.116-15.801-46.246s-15.759-41.32-15.759-41.32
					s-17.757,20.384-4.449,46.511c10.272,20.166,4.781,30.689,4.781,30.689L221.171,446.383z"/>
				<g>
					<path style="fill:#FFFFFF;" d="M189.611,358.817c-1.765,3.228-2.838,6.789-3.281,10.391c-0.503,3.598-0.207,7.275,0.75,10.74
						c0.471,1.74,1.162,3.405,1.913,5.036l1.281,2.375l1.436,2.345c1.922,3.128,3.864,6.255,5.741,9.432
						c1.841,3.199,3.621,6.444,5.189,9.803c1.515,3.382,2.875,6.852,3.814,10.454c0.886,3.615,1.391,7.321,1.391,11.037
						c-0.114,3.719-0.799,7.387-1.966,10.876c0.841-3.586,1.365-7.221,1.231-10.871c-0.149-3.642-0.77-7.24-1.768-10.736
						c-1.08-3.474-2.416-6.864-3.987-10.156c-1.582-3.287-3.35-6.489-5.198-9.651c-1.839-3.169-3.773-6.293-5.658-9.455
						l-1.399-2.386l-1.29-2.504c-0.411-0.843-0.707-1.741-1.056-2.611c-0.182-0.433-0.315-0.884-0.425-1.341l-0.361-1.361
						C184.168,372.927,185.599,364.99,189.611,358.817z"/>
				</g>
			</g>
			<g>
				<path style="fill:#13AAAA;" d="M205.275,436.28c0,0-0.448-15.335-20.576-27.081c-20.128-11.745-19.468-23.836-19.468-23.836
					s-7.259,17.357,7.259,31.695c11.206,11.067,9.886,19.221,9.886,19.221H205.275z"/>
				<g>
					<path style="fill:#FFFFFF;" d="M165.231,385.363c-0.408,2.529-0.311,5.106,0.22,7.564c0.489,2.468,1.516,4.793,2.895,6.849
						c0.69,1.033,1.508,1.968,2.357,2.868l1.359,1.27l1.466,1.226c1.959,1.638,3.928,3.278,5.871,4.964
						c1.918,1.715,3.809,3.473,5.583,5.36c1.741,1.916,3.399,3.925,4.807,6.115c1.384,2.206,2.508,4.575,3.292,7.051
						c0.708,2.503,1.038,5.088,0.98,7.651c-0.282-2.551-0.755-5.054-1.676-7.414c-0.927-2.351-2.149-4.56-3.569-6.637
						c-2.927-4.107-6.579-7.651-10.407-10.999c-1.903-1.691-3.865-3.329-5.8-5.012l-1.444-1.277l-1.408-1.39
						c-0.886-0.977-1.711-2.013-2.392-3.144C164.558,395.919,163.86,390.297,165.231,385.363z"/>
				</g>
			</g>
			<g>
				<path style="fill:#13AAAA;" d="M213.131,444.652c0,0-4.341-14.715,11.14-32.135c15.48-17.42,11.095-28.707,11.095-28.707
					s12.295,14.241,2.952,32.382c-7.211,14.003-3.422,21.342-3.422,21.342L213.131,444.652z"/>
				<g>
					<path style="fill:#FFFFFF;" d="M235.365,383.811c2.837,4.264,3.921,9.824,2.647,14.962c-0.295,1.287-0.757,2.528-1.296,3.732
						l-0.907,1.758l-0.975,1.662c-1.316,2.201-2.671,4.368-3.955,6.566c-2.598,4.372-4.967,8.875-6.473,13.689
						c-0.703,2.416-1.178,4.895-1.329,7.418c-0.142,2.529,0.187,5.056,0.711,7.568c-0.851-2.418-1.341-4.977-1.446-7.576
						c-0.025-2.597,0.307-5.198,0.937-7.725c0.658-2.519,1.609-4.944,2.668-7.306c1.1-2.344,2.351-4.604,3.641-6.829
						c1.322-2.206,2.684-4.377,4.037-6.543l1.012-1.621l0.897-1.629c0.528-1.119,1.014-2.263,1.349-3.459
						c0.672-2.383,0.925-4.912,0.623-7.409C237.248,388.567,236.539,386.087,235.365,383.811z"/>
				</g>
			</g>
		</g>
		<g>
			<g>
				<path style="fill:#25BAB6;" d="M579.916,446.383c0,0-7.379-24.611,18.416-53.9c25.796-29.289,18.367-48.159,18.367-48.159
					s20.696,23.758,5.186,54.209c-11.973,23.504-5.572,35.768-5.572,35.768L579.916,446.383z"/>
				<g>
					<path style="fill:#FFFFFF;" d="M616.699,344.324c4.63,7.22,6.263,16.452,4.155,24.937l-0.423,1.581l-0.212,0.791
						c-0.085,0.259-0.191,0.51-0.285,0.766c-0.409,1.01-0.757,2.051-1.239,3.028l-1.51,2.903l-1.641,2.772
						c-2.202,3.682-4.44,7.334-6.579,11.032c-2.159,3.685-4.239,7.411-6.083,11.25c-1.819,3.849-3.355,7.815-4.607,11.873
						c-1.154,4.085-1.869,8.287-2.03,12.538c-0.135,4.26,0.488,8.499,1.496,12.671c-1.334-4.075-2.119-8.347-2.231-12.676
						c0.012-4.325,0.61-8.636,1.652-12.839c1.1-4.19,2.706-8.218,4.484-12.148c1.828-3.909,3.884-7.696,6.024-11.425
						c2.192-3.698,4.472-7.331,6.707-10.981l1.662-2.742l1.486-2.785c0.869-1.912,1.671-3.861,2.216-5.896
						c1.108-4.053,1.442-8.351,0.842-12.55C620.045,352.224,618.781,348.073,616.699,344.324z"/>
				</g>
			</g>
			<g>
				<path style="fill:#13AAAA;" d="M598.442,434.608c0,0,0.522-17.874,23.982-31.563c23.46-13.689,22.69-27.781,22.69-27.781
					s8.461,20.23-8.461,36.941c-13.061,12.899-11.523,22.403-11.523,22.403H598.442z"/>
				<g>
					<path style="fill:#FFFFFF;" d="M645.114,375.264c1.568,5.767,0.673,12.274-2.577,17.476c-0.789,1.313-1.746,2.516-2.778,3.647
						l-1.637,1.61l-1.684,1.484c-2.257,1.957-4.544,3.867-6.766,5.837c-2.23,1.958-4.407,3.968-6.464,6.087
						c-2.053,2.122-3.943,4.384-5.671,6.767c-1.669,2.422-3.073,5.02-4.13,7.775c-1.056,2.762-1.595,5.687-1.896,8.661
						c-0.039-2.986,0.357-5.992,1.2-8.897c0.938-2.872,2.267-5.609,3.866-8.179c1.634-2.549,3.572-4.878,5.601-7.105
						c2.067-2.192,4.269-4.239,6.504-6.234c2.261-1.966,4.555-3.876,6.837-5.789l1.707-1.434l1.588-1.49
						c0.991-1.056,1.949-2.152,2.758-3.361c1.626-2.403,2.8-5.142,3.345-8.029C645.517,381.215,645.617,378.206,645.114,375.264z"/>
				</g>
			</g>
			<g>
				<path style="fill:#13AAAA;" d="M589.286,444.366c0,0,5.059-17.151-12.983-37.453c-18.043-20.303-12.931-33.458-12.931-33.458
					s-14.329,16.598-3.441,37.741c8.405,16.32,3.989,24.875,3.989,24.875L589.286,444.366z"/>
				<g>
					<path style="fill:#FFFFFF;" d="M563.372,373.455c-1.392,2.64-2.233,5.531-2.556,8.45c-0.38,2.914-0.114,5.881,0.684,8.671
						c0.393,1.401,0.962,2.739,1.576,4.052l1.047,1.91l1.177,1.893c1.573,2.527,3.161,5.057,4.698,7.628
						c1.504,2.591,2.961,5.221,4.244,7.947c1.236,2.747,2.354,5.563,3.115,8.494c0.721,2.94,1.133,5.955,1.133,8.976
						c-0.102,3.024-0.66,6.004-1.625,8.83c0.638-2.92,1.035-5.868,0.89-8.821c-0.148-2.946-0.675-5.852-1.508-8.673
						c-0.902-2.802-1.995-5.539-3.286-8.195c-1.296-2.654-2.741-5.24-4.252-7.795c-1.499-2.563-3.079-5.089-4.616-7.651l-1.14-1.934
						l-1.056-2.039c-0.629-1.395-1.165-2.836-1.507-4.329C558.917,384.911,560.089,378.449,563.372,373.455z"/>
				</g>
			</g>
		</g>
		<g>
			<path style="fill:#D4484C;" d="M541.445,403.611l-12.572,10.514l4.86-15.299c-4.795-2.223-10.134-3.472-15.768-3.472
				c-8.142,0-15.671,2.6-21.822,7.003l2.589,7.656l-7.111-3.856c-6.91,6.809-11.198,16.272-11.198,26.739h75.085
				C555.509,421.05,550.016,410.491,541.445,403.611z"/>
			<path style="fill:#E8646E;" d="M529.002,419.131l-5.909,4.942l2.285-7.191c-2.254-1.045-4.764-1.632-7.411-1.632
				c-3.827,0-7.366,1.222-10.257,3.292l1.217,3.599l-3.342-1.812c-3.248,3.2-5.263,7.648-5.263,12.568h35.293
				C535.613,427.328,533.031,422.365,529.002,419.131z"/>
			<g>
				<path style="fill:none;stroke:#FFFFFF;stroke-width:2;stroke-linecap:round;stroke-miterlimit:10;" d="M490.843,415.67
					c0.977,0.751,3.948,3.35,5.508,3.849"/>
				<path style="fill:none;stroke:#FFFFFF;stroke-width:2;stroke-linecap:round;stroke-miterlimit:10;" d="M503.634,405.301
					c0.564,1.095,2.146,4.712,3.346,5.828"/>
				<path style="fill:none;stroke:#FFFFFF;stroke-width:2;stroke-linecap:round;stroke-miterlimit:10;" d="M519.948,401.582
					c-0.105,1.227-0.688,5.132-0.266,6.715"/>
				<path style="fill:none;stroke:#FFFFFF;stroke-width:2;stroke-linecap:round;stroke-miterlimit:10;" d="M547.07,416.111
					c-1.078,0.597-4.644,2.289-5.723,3.522"/>
			</g>
		</g>
		<g>
			<path style="fill:#13AAAA;" d="M482.287,411.044l-9.381,7.845l3.627-11.416c-3.578-1.659-7.562-2.591-11.765-2.591
				c-6.075,0-11.694,1.94-16.283,5.226l1.931,5.713l-5.306-2.877c-5.156,5.081-8.356,12.141-8.356,19.952h56.027
				C492.781,424.056,488.683,416.178,482.287,411.044z"/>
			<path style="fill:#27C4BF;" d="M473.003,422.625l-4.409,3.688l1.705-5.366c-1.682-0.78-3.554-1.218-5.53-1.218
				c-2.855,0-5.496,0.912-7.654,2.456l0.908,2.685l-2.494-1.352c-2.424,2.388-3.927,5.707-3.927,9.378h26.335
				C477.935,428.741,476.009,425.038,473.003,422.625z"/>
			<g>
				<path style="fill:none;stroke:#FFFFFF;stroke-width:2;stroke-linecap:round;stroke-miterlimit:10;" d="M444.529,420.042
					c0.729,0.56,2.946,2.5,4.11,2.872"/>
				<path style="fill:none;stroke:#FFFFFF;stroke-width:2;stroke-linecap:round;stroke-miterlimit:10;" d="M454.073,412.306
					c0.421,0.817,1.602,3.516,2.497,4.348"/>
				<path style="fill:none;stroke:#FFFFFF;stroke-width:2;stroke-linecap:round;stroke-miterlimit:10;" d="M466.247,409.531
					c-0.078,0.916-0.514,3.829-0.198,5.01"/>
				<path style="fill:none;stroke:#FFFFFF;stroke-width:2;stroke-linecap:round;stroke-miterlimit:10;" d="M486.484,420.371
					c-0.804,0.446-3.465,1.708-4.27,2.628"/>
			</g>
		</g>
	</g>
	<g>
		<path style="fill:#1E2C3A;" d="M194.884,207.64c0,0-16.44,2.551-11.065,24.317l-17.143,18.918c0,0-3.939-13.299,4.264-27.021
			c3.887-6.502,0.619-18.017,9.011-20.177c0,0,3.8-7.15,13.884-4.351c10.084,2.799,13.248,14.011,10.145,23.556
			c-3.103,9.545-1.886,12.344-1.886,12.344l-2.361,5.583l-11.836-9.203L194.884,207.64z"/>
		<g>
			<g>
				<polygon style="fill:#1E2C3A;" points="217.284,423.817 236.229,429.965 236.229,432.896 208.562,432.896 209.206,423.817 				
					"/>
				<g>
					
						<line style="fill:none;stroke:#FFFFFF;stroke-width:1.5;stroke-linecap:round;stroke-miterlimit:10;" x1="223.762" y1="425.052" x2="223.008" y2="427.05"/>
					
						<line style="fill:none;stroke:#FFFFFF;stroke-width:1.5;stroke-linecap:round;stroke-miterlimit:10;" x1="221.37" y1="424.3" x2="220.617" y2="426.299"/>
				</g>
			</g>
			<polygon style="fill:#FABB86;" points="217.284,423.817 215.491,411.469 207.234,411.469 209.206,423.817 			"/>
			<g>
				<polygon style="fill:#1E2C3A;" points="161.447,423.817 142.502,429.965 142.502,432.896 170.169,432.896 169.525,423.817 				
					"/>
				<g>
					
						<line style="fill:none;stroke:#FFFFFF;stroke-width:1.5;stroke-linecap:round;stroke-miterlimit:10;" x1="154.97" y1="425.052" x2="155.723" y2="427.05"/>
					
						<line style="fill:none;stroke:#FFFFFF;stroke-width:1.5;stroke-linecap:round;stroke-miterlimit:10;" x1="157.361" y1="424.3" x2="158.114" y2="426.299"/>
				</g>
			</g>
			<polygon style="fill:#FABB86;" points="161.447,423.817 163.24,411.469 171.498,411.469 169.525,423.817 			"/>
			<polygon style="fill:#2E4151;" points="209.237,290.551 217.284,423.817 209.206,423.817 184.573,290.551 			"/>
			<polygon style="fill:#2E4151;" points="193.835,290.551 169.525,423.817 161.447,423.817 166.557,290.551 			"/>
			<polygon style="fill:#1E2C3A;" points="165.578,316.073 178.066,308.849 168.122,304.951 165.956,306.215 			"/>
			
				<rect x="179.735" y="290.551" transform="matrix(-1 -4.482293e-11 4.482293e-11 -1 378.4629 607.2683)" style="fill:#2E4151;" width="18.992" height="26.165"/>
			<polygon style="fill:#1E2C3A;" points="210.2,306.506 200.928,304.951 196.586,308.849 210.779,316.089 			"/>
			<line style="fill:none;stroke:#77525A;stroke-miterlimit:10;" x1="175.243" y1="296.199" x2="167.272" y2="304.951"/>
			<line style="fill:none;stroke:#77525A;stroke-miterlimit:10;" x1="202.619" y1="296.966" x2="209.299" y2="304.414"/>
			<g>
				<g>
					<path style="fill:#FB9739;" d="M222.6,256.045l4.892,4.609c0.29,0.274,0.767,0.154,0.893-0.224l7.45-22.245l8.017,2.623
						l-7.964,25.998c-1.608,5.45-8.371,7.329-12.561,3.49l-7.634-6.995L222.6,256.045z"/>
					<g>
						<path style="fill:#EFA66F;" d="M242.156,233.506l1.78-5.058c0.239-0.679-0.121-1.431-0.801-1.67l0,0
							c-0.679-0.239-1.431,0.121-1.67,0.801l-1.78,5.058c-0.239,0.679,0.121,1.431,0.801,1.67l0,0
							C241.165,234.545,241.917,234.185,242.156,233.506z"/>
						<path style="fill:#EFA66F;" d="M244.487,234.635l1.78-5.058c0.239-0.679-0.121-1.431-0.801-1.67l0,0
							c-0.679-0.239-1.431,0.121-1.67,0.801l-1.78,5.058c-0.239,0.679,0.121,1.431,0.801,1.67h0
							C243.496,235.674,244.248,235.314,244.487,234.635z"/>
						<path style="fill:#EFA66F;" d="M246.817,235.764l1.78-5.058c0.239-0.679-0.121-1.431-0.801-1.67l0,0
							c-0.679-0.239-1.431,0.121-1.67,0.801l-1.78,5.058c-0.239,0.679,0.121,1.431,0.801,1.67l0,0
							C245.827,236.803,246.578,236.443,246.817,235.764z"/>
						<g>
							<path style="fill:#FABB86;" d="M239.773,232.653l3.994-11.35c0.239-0.679-0.121-1.431-0.801-1.67l0,0
								c-0.679-0.239-1.431,0.121-1.67,0.801l-3.994,11.35c-0.239,0.679,0.121,1.431,0.801,1.67l0,0
								C238.783,233.693,239.534,233.333,239.773,232.653z"/>
							<path style="fill:#FFFFFF;" d="M222.258,230.603v-52.616c0-0.553,0.449-1.002,1.002-1.002H263
								c0.553,0,1.002,0.449,1.002,1.002v52.616c0,0.554-0.449,1.002-1.002,1.002H223.26
								C222.707,231.605,222.258,231.157,222.258,230.603z"/>
							<g>
								<path style="fill-rule:evenodd;clip-rule:evenodd;fill:#D4484C;" d="M259.274,193.043h-32.287
									c-0.401,0-0.726-0.325-0.726-0.726v-8.511c0-0.401,0.325-0.726,0.726-0.726h32.287c0.401,0,0.726,0.325,0.726,0.726v8.511
									C260,192.718,259.675,193.043,259.274,193.043z"/>
								<g>
									<rect x="239.861" y="185.845" style="fill-rule:evenodd;clip-rule:evenodd;fill:#FFFFFF;" width="15.454" height="1.011"/>
									<rect x="239.861" y="187.555" style="fill-rule:evenodd;clip-rule:evenodd;fill:#FFFFFF;" width="15.454" height="1.011"/>
									<rect x="239.861" y="189.266" style="fill-rule:evenodd;clip-rule:evenodd;fill:#FFFFFF;" width="7.727" height="1.011"/>
								</g>
								<g>
									<circle style="fill:#FFFFFF;" cx="234.278" cy="188.061" r="3.873"/>
									<g>
										
											<text transform="matrix(1 0 0 1 232.1771 189.6318)" style="fill:#D4484C; font-family:'FontAwesome5FreeSolid'; font-size:4.7528px;">user</text>
									</g>
								</g>
								<polygon style="fill-rule:evenodd;clip-rule:evenodd;fill:#D4484C;" points="232.177,193.043 233.927,194.792 
									233.927,193.043 								"/>
							</g>
							<g>
								<path style="fill-rule:evenodd;clip-rule:evenodd;fill:#FB9739;" d="M226.987,207.087h32.287
									c0.401,0,0.726-0.325,0.726-0.726v-8.511c0-0.401-0.325-0.726-0.726-0.726h-32.287c-0.401,0-0.726,0.325-0.726,0.726v8.511
									C226.26,206.762,226.585,207.087,226.987,207.087z"/>
								<g>
									
										<rect x="230.945" y="199.889" transform="matrix(-1 -4.484647e-11 4.484647e-11 -1 477.3445 400.7887)" style="fill-rule:evenodd;clip-rule:evenodd;fill:#FFFFFF;" width="15.454" height="1.011"/>
									
										<rect x="230.945" y="201.6" transform="matrix(-1 -4.478741e-11 4.478741e-11 -1 477.3445 404.2106)" style="fill-rule:evenodd;clip-rule:evenodd;fill:#FFFFFF;" width="15.454" height="1.011"/>
									
										<rect x="238.672" y="203.311" transform="matrix(-1 -4.484647e-11 4.484647e-11 -1 485.0712 407.6325)" style="fill-rule:evenodd;clip-rule:evenodd;fill:#FFFFFF;" width="7.727" height="1.011"/>
								</g>
								<g>
									<circle style="fill:#FFFFFF;" cx="251.983" cy="202.105" r="3.873"/>
									<g>
										
											<text transform="matrix(-1 0 0 1 254.0833 203.6758)" style="fill:#FB9739; font-family:'FontAwesome5FreeSolid'; font-size:4.7528px;">user</text>
									</g>
								</g>
								<polygon style="fill-rule:evenodd;clip-rule:evenodd;fill:#FB9739;" points="254.083,207.087 252.333,208.837 
									252.333,207.087 								"/>
							</g>
							<g>
								<path style="fill-rule:evenodd;clip-rule:evenodd;fill:#00A79D;" d="M259.274,221.131h-32.287
									c-0.401,0-0.726-0.325-0.726-0.726v-8.511c0-0.401,0.325-0.726,0.726-0.726h32.287c0.401,0,0.726,0.325,0.726,0.726v8.511
									C260,220.806,259.675,221.131,259.274,221.131z"/>
								<g>
									<rect x="239.861" y="213.933" style="fill-rule:evenodd;clip-rule:evenodd;fill:#FFFFFF;" width="15.454" height="1.011"/>
									<rect x="239.861" y="215.644" style="fill-rule:evenodd;clip-rule:evenodd;fill:#FFFFFF;" width="15.454" height="1.011"/>
									<rect x="239.861" y="217.355" style="fill-rule:evenodd;clip-rule:evenodd;fill:#FFFFFF;" width="7.727" height="1.011"/>
								</g>
								<g>
									<path style="fill:#FFFFFF;" d="M238.15,216.15c0,2.139-1.734,3.873-3.873,3.873s-3.873-1.734-3.873-3.873
										s1.734-3.873,3.873-3.873S238.15,214.011,238.15,216.15z"/>
									<g>
										<g>
											
												<text transform="matrix(1 0 0 1 232.1776 217.7202)" style="fill:#00A79D; font-family:'FontAwesome5FreeSolid'; font-size:4.7528px;">user</text>
										</g>
									</g>
								</g>
								<polygon style="fill-rule:evenodd;clip-rule:evenodd;fill:#00A79D;" points="232.177,221.131 233.927,222.881 
									233.927,221.131 								"/>
							</g>
							<path style="fill:#FABB86;" d="M237.5,231.599l1.151-3.271c0.239-0.679-0.121-1.431-0.801-1.67l0,0
								c-0.679-0.239-1.431,0.121-1.67,0.801l-1.151,3.271c-0.239,0.679,0.121,1.431,0.801,1.67l0,0
								C236.509,232.639,237.26,232.278,237.5,231.599z"/>
						</g>
						<path style="fill:#FABB86;" d="M234.979,231.408l0.856,6.777l8.017,2.623c0,0,1.698-1.591,2.862-4.824
							c0,0-0.987-1.637-2.241-2.416c-1.255-0.778-5.678-2.581-5.678-2.581s-2.215-0.637-2.464-0.499
							C236.083,230.627,234.979,231.408,234.979,231.408z"/>
					</g>
				</g>
				<polygon style="fill:#FB9739;" points="205.416,236.505 224.038,257.399 217.814,265.244 198.18,247.333 				"/>
				<path style="fill:#E57C25;" d="M212.512,260.407l-7.39-15.291c0,0-0.533,4.256-0.879,7.749L212.512,260.407z"/>
				<polygon style="fill:#1E2C3A;" points="184.721,231.605 169.385,237.577 166.557,290.551 209.237,290.551 205.416,236.505 
					192.339,231.605 				"/>
				<line style="fill:none;stroke:#1E2C3A;stroke-miterlimit:10;" x1="205.883" y1="294.597" x2="176.065" y2="294.597"/>
				<polyline style="fill:none;stroke:#1E2C3A;stroke-miterlimit:10;" points="191.865,298.415 191.865,313.822 185.859,313.822 
									"/>
				<rect x="188.505" y="290.551" style="fill:none;stroke:#1E2C3A;stroke-miterlimit:10;" width="7.649" height="4.046"/>
				<polygon style="fill:#FFFFFF;" points="184.721,231.605 177.743,234.322 189.821,252.439 196.519,233.171 192.339,231.605 				
					"/>
				<polygon style="fill:#FB9739;" points="183.819,231.957 178.066,308.849 159.425,308.849 166.557,283.415 169.385,237.577 				
					"/>
				<path style="fill:#E57C25;" d="M170.758,261.936l3.471-9.497c0,0-4.229,5.316-6.258,8.048l-0.678,10.988
					c1.683,0.987,4.328,2.083,4.328,2.083l9.22-1.814L170.758,261.936z"/>
				<path style="fill:#E57C25;" d="M176.065,274.531c-1.294-0.73-3.999,0-6.339,0c-0.674,0-1.624,0.177-2.649,0.444l-0.521,8.44
					l-1.061,3.785l14.706-6.898C180.202,280.302,177.36,275.262,176.065,274.531z"/>
				<polygon style="fill:#FB9739;" points="192.628,231.716 196.586,308.849 215.332,308.849 209.237,283.902 205.416,236.505 				
					"/>
				<path style="fill:#FABB86;" d="M179.951,219.628l4.728,15.071c0.537,1.712,2.123,2.877,3.918,2.877h0
					c2.341,0,4.208-1.954,4.102-4.292l-0.298-6.585L179.951,219.628z"/>
				<path style="fill:#EFA66F;" d="M192.628,231.716c-9.076-0.613-11.266-9.314-11.266-9.314l2.622-0.484l8.417,4.78
					L192.628,231.716z"/>
				<g>
					<g>
						<path style="fill:#FABB86;" d="M179.951,219.628c0,0-3.534-0.876-3.086-4.544s3.387-3.187,4.361-1.196
							c0.414,0.848,0.614,1.712,0.706,2.425l0.698-0.076c0,0,1.682-6.252,4.072-7.743c2.389-1.491,11.093-0.902,12.816-0.16
							c1.905,0.82,1.764,16.007-3.514,19.855C190.727,232.038,181.985,225.525,179.951,219.628z"/>
					</g>
					<g>
						<g>
							<path style="fill-rule:evenodd;clip-rule:evenodd;fill:#1E2C3A;" d="M197.984,215.379c0-0.127,0.241-0.232,0.567-0.264
								c-0.09-0.304-0.369-0.529-0.701-0.529c-0.404,0-0.734,0.33-0.734,0.734v1.134c0,0.404,0.33,0.734,0.734,0.734
								c0.404,0,0.734-0.33,0.734-0.734v-0.807C198.24,215.619,197.984,215.51,197.984,215.379z"/>
						</g>
						<g>
							<g>
								<g>
									<path style="fill:#1E2C3A;" d="M188.382,213.945c-0.181,0-0.351-0.112-0.418-0.291c-0.085-0.231,0.033-0.487,0.264-0.572
										c1.816-0.67,3.105-0.005,3.159,0.024c0.217,0.115,0.3,0.385,0.185,0.602c-0.115,0.216-0.383,0.299-0.6,0.186
										c-0.05-0.025-1.019-0.5-2.435,0.023C188.485,213.936,188.433,213.945,188.382,213.945z"/>
								</g>
							</g>
							<path style="fill-rule:evenodd;clip-rule:evenodd;fill:#1E2C3A;" d="M189.956,215.379c0-0.127,0.241-0.232,0.567-0.264
								c-0.09-0.304-0.369-0.529-0.701-0.529c-0.404,0-0.734,0.33-0.734,0.734v1.134c0,0.404,0.33,0.734,0.734,0.734
								c0.404,0,0.734-0.33,0.734-0.734v-0.807C190.212,215.619,189.956,215.51,189.956,215.379z"/>
						</g>
						<g>
							<g>
								<g>
									<path style="fill:#1E2C3A;" d="M199.288,213.945c-0.051,0-0.104-0.009-0.154-0.028c-1.426-0.526-2.396-0.044-2.437-0.023
										c-0.218,0.112-0.486,0.027-0.599-0.19c-0.113-0.217-0.031-0.484,0.185-0.598c0.054-0.029,1.345-0.694,3.159-0.024
										c0.231,0.085,0.349,0.341,0.264,0.572C199.639,213.834,199.469,213.945,199.288,213.945z"/>
								</g>
							</g>
						</g>
					</g>
					<g>
						<path style="fill:#2C4784;" d="M190.725,210.117c0,0-0.01,0.002-0.028,0.006c0.01,0.001,0.021,0.003,0.032,0.004
							L190.725,210.117z"/>
					</g>
				</g>
			</g>
			<path style="fill:#EF8950;" d="M194.192,216.313c0,0,1.894,2.85,2.216,3.743c0.322,0.894-2.216,0.751-2.216,0.751V216.313z"/>
			<path style="fill:#FFFFFF;" d="M196.824,222.597h-5.979C190.846,222.597,194.15,228.248,196.824,222.597z"/>
			<path style="fill:#EF8950;" d="M180.252,214.848c0,0-0.813-1.075-1.591-0.78c-0.777,0.295-0.992,2.895,0.59,3.807
				c0,0-0.88-1.662-0.413-2.547C179.305,214.444,180.252,214.848,180.252,214.848z"/>
		</g>
		<path style="fill:#1E2C3A;" d="M200.907,210.688h-6.715l-1.18-2.19l-0.31,2.419l-6.216,0.251c0,0-3.26,1.657-2.16,8.574
			c1.1,6.917-0.508,12.215-0.508,12.215s-6.551-0.644-6.49-1.487c0.061-0.843-2.13-12.182-2.19-12.749
			c-0.061-0.567,1.001-5.313,1.687-5.982s2.633-4.259,5.067-5.172c2.434-0.913,5.096-1.399,6.838-1.643
			c1.741-0.243,2.158-0.769,3.897-0.628c1.739,0.141,2.411-0.141,3.809,0s1.885-0.567,2.797,0c0.913,0.567,1.46,1.967,1.673,2.453
			C201.12,207.235,200.907,210.688,200.907,210.688z"/>
		<path style="fill:#FB9739;" d="M166.205,263.31l-3.432,5.779c-0.204,0.343,0.017,0.782,0.414,0.823l23.334,2.422l-0.813,8.396
			l-27.109-2.106c-5.669-0.382-8.977-6.573-6.144-11.498l5.163-8.975L166.205,263.31z"/>
		<path style="fill:#FABB86;" d="M192.465,277.483l5.324,0.635c0.715,0.085,1.37-0.43,1.455-1.145h0
			c0.085-0.715-0.43-1.37-1.145-1.455l-5.324-0.635c-0.715-0.085-1.37,0.43-1.455,1.145l0,0
			C191.234,276.743,191.75,277.397,192.465,277.483z"/>
		<path style="fill:#EFA66F;" d="M197.789,277.341l-5.324-0.635c-0.527-0.063-0.943-0.436-1.093-0.913
			c-0.024,0.075-0.043,0.153-0.052,0.234c-0.085,0.715,0.43,1.37,1.145,1.455l5.324,0.635c0.715,0.085,1.37-0.43,1.455-1.145
			c0.022-0.188,0.001-0.371-0.052-0.542C199.007,277.019,198.423,277.417,197.789,277.341z"/>
		<path style="fill:#FABB86;" d="M192.579,274.959l5.324,0.635c0.715,0.085,1.37-0.43,1.455-1.145l0,0
			c0.085-0.715-0.43-1.37-1.145-1.455l-5.324-0.635c-0.715-0.085-1.37,0.43-1.455,1.145l0,0
			C191.348,274.219,191.864,274.874,192.579,274.959z"/>
		<path style="fill:#EFA66F;" d="M197.903,274.743l-5.324-0.635c-0.514-0.061-0.921-0.419-1.08-0.88
			c-0.031,0.088-0.054,0.18-0.066,0.276c-0.085,0.715,0.43,1.37,1.145,1.455l5.324,0.635c0.715,0.085,1.37-0.43,1.455-1.145
			c0.024-0.201-0.004-0.395-0.066-0.575C199.095,274.44,198.522,274.817,197.903,274.743z"/>
		<path style="fill:#FABB86;" d="M191.871,280.003l5.324,0.635c0.715,0.085,1.37-0.43,1.455-1.145l0,0
			c0.085-0.715-0.43-1.37-1.145-1.455l-5.324-0.635c-0.715-0.085-1.37,0.43-1.455,1.145l0,0
			C190.64,279.263,191.156,279.918,191.871,280.003z"/>
		<path style="fill:#EFA66F;" d="M197.195,279.745l-5.324-0.635c-0.506-0.06-0.907-0.408-1.071-0.858
			c-0.035,0.094-0.062,0.192-0.075,0.296c-0.085,0.715,0.43,1.37,1.145,1.455l5.324,0.635c0.715,0.085,1.37-0.43,1.455-1.145
			c0.025-0.209-0.007-0.411-0.075-0.598C198.371,279.45,197.806,279.818,197.195,279.745z"/>
		<path style="fill:#FABB86;" d="M191.277,282.524l5.324,0.635c0.715,0.085,1.37-0.43,1.455-1.145l0,0
			c0.085-0.715-0.43-1.37-1.145-1.455l-5.324-0.635c-0.715-0.085-1.37,0.43-1.455,1.145l0,0
			C190.046,281.784,190.562,282.439,191.277,282.524z"/>
		<path style="fill:#EFA66F;" d="M196.601,282.347l-5.324-0.635c-0.522-0.062-0.935-0.429-1.088-0.901
			c-0.027,0.082-0.047,0.168-0.057,0.257c-0.085,0.715,0.43,1.37,1.145,1.455l5.324,0.635c0.715,0.085,1.37-0.43,1.455-1.145
			c0.023-0.193-0.001-0.38-0.057-0.555C197.807,282.036,197.227,282.422,196.601,282.347z"/>
		<path style="fill:#FABB86;" d="M193.311,272.522l3.443,0.411c0.715,0.085,1.37-0.43,1.455-1.145l0,0
			c0.085-0.715-0.43-1.37-1.145-1.455l-3.443-0.411c-0.715-0.085-1.37,0.43-1.455,1.145l0,0
			C192.08,271.782,192.596,272.437,193.311,272.522z"/>
		<path style="fill:#EFA66F;" d="M196.754,272.34l-3.443-0.411c-0.558-0.067-0.99-0.482-1.114-1
			c-0.011,0.046-0.025,0.09-0.031,0.138c-0.085,0.715,0.43,1.37,1.145,1.455l3.443,0.411c0.715,0.085,1.37-0.43,1.455-1.145
			c0.019-0.157,0.004-0.309-0.031-0.455C198.03,271.973,197.421,272.419,196.754,272.34z"/>
		<path style="fill:#FABB86;" d="M192.948,270.021l-6.427,2.313l-0.813,8.396c0,0,1.922,1.311,5.331,1.742
			c0,0,1.383-1.32,1.869-2.714c0.486-1.394,1.281-6.104,1.281-6.104s0.139-2.3-0.05-2.513
			C193.951,270.928,192.948,270.021,192.948,270.021z"/>
		<polygon style="fill:#FB9739;" points="181.53,242.28 165.197,265.007 156.184,260.643 169.385,237.577 		"/>
	</g>
	<g>
		<path style="fill:#F7A17B;" d="M104.743,446.383h540.513c3.709,0,6.743-3.035,6.743-6.743v0c0-3.709-3.035-6.743-6.743-6.743
			H104.743c-3.709,0-6.743,3.035-6.743,6.743v0C98,443.348,101.035,446.383,104.743,446.383z"/>
		<path style="fill:#E07F5A;" d="M645.257,439.639H104.743c-2.481,0-4.656-1.362-5.826-3.372c-0.579,0.994-0.917,2.144-0.917,3.372
			v0c0,3.709,3.035,6.743,6.743,6.743h540.513c3.709,0,6.743-3.035,6.743-6.743v0c0-1.227-0.338-2.378-0.917-3.372
			C649.912,438.277,647.738,439.639,645.257,439.639z"/>
	</g>
	<g>
		<g>
			<rect x="307.856" y="413.274" style="fill:#FB9739;" width="123.916" height="19.622"/>
			<g>
				<rect x="319.55" y="413.274" style="fill:#E57C25;" width="4.816" height="19.622"/>
				<rect x="415.26" y="413.274" style="fill:#E57C25;" width="4.816" height="19.622"/>
			</g>
			<circle style="fill:#E57C25;" cx="369.813" cy="423.085" r="6.179"/>
		</g>
		<g>
			<rect x="296.161" y="393.651" style="fill:#D4484C;" width="123.916" height="19.622"/>
			<path style="fill:#E8646E;" d="M380.655,399.222h-45.073c-2.342,0-4.24,1.898-4.24,4.24v0c0,2.342,1.898,4.24,4.24,4.24h45.073
				c2.342,0,4.24-1.898,4.24-4.24v0C384.895,401.121,382.997,399.222,380.655,399.222z"/>
			<g>
				<rect x="307.856" y="393.651" style="fill:#E8646E;" width="4.816" height="19.622"/>
				<rect x="403.566" y="393.651" style="fill:#E8646E;" width="4.816" height="19.622"/>
			</g>
		</g>
		<g>
			<rect x="320.111" y="374.029" style="fill:#13AAAA;" width="123.916" height="19.622"/>
			<rect x="355.293" y="379.6" style="fill:#27C4BF;" width="53.553" height="8.48"/>
			<g>
				<rect x="331.806" y="374.029" style="fill:#27C4BF;" width="4.816" height="19.622"/>
				<rect x="427.516" y="374.029" style="fill:#27C4BF;" width="4.816" height="19.622"/>
			</g>
		</g>
	</g>
</g>
</svg>
